{"glyphs":{"0":{"ha":742,"x_min":69,"x_max":671,"o":"m 369 972 q 583 883 495 972 q 671 671 671 795 q 671 300 671 423 q 583 88 671 176 q 369 0 495 0 q 157 88 245 0 q 69 300 69 176 q 69 671 69 547 q 157 883 69 795 q 369 972 245 972 m 575 300 q 575 671 575 547 q 515 815 575 755 q 369 875 454 875 q 225 815 285 875 q 165 671 165 755 q 165 300 165 423 q 225 156 165 216 q 369 96 285 96 q 515 156 454 96 q 575 300 575 216 "},"1":{"ha":465,"x_min":69,"x_max":395,"o":"m 69 972 q 395 972 313 972 q 395 0 395 243 q 297 0 321 0 q 297 875 297 656 q 69 875 126 875 q 69 972 69 948 "},"2":{"ha":741,"x_min":69,"x_max":670,"o":"m 194 96 q 670 96 551 96 q 670 0 670 24 q 69 0 220 0 q 69 96 69 72 q 495 526 353 382 q 538 591 522 553 q 555 671 555 628 q 538 750 555 712 q 495 814 522 787 q 430 859 468 842 q 350 875 393 875 q 271 859 308 875 q 206 814 233 842 q 137 883 160 860 q 233 948 178 924 q 350 972 288 972 q 468 948 412 972 q 564 883 524 924 q 628 788 605 842 q 651 671 651 732 q 628 553 651 609 q 564 457 605 498 q 194 96 286 186 "},"3":{"ha":654,"x_min":69,"x_max":583,"o":"m 495 514 q 560 418 536 473 q 583 301 583 363 q 560 183 583 239 q 495 88 536 127 q 399 23 454 47 q 282 0 345 0 q 164 23 220 0 q 69 88 110 47 q 137 157 115 134 q 202 113 165 129 q 282 98 239 98 q 361 113 324 98 q 426 157 399 129 q 469 221 453 184 q 486 301 486 259 q 469 380 486 343 q 426 445 453 418 q 361 490 399 472 q 282 506 324 506 q 199 506 221 506 q 199 602 199 578 q 282 602 255 602 q 335 613 311 602 q 378 642 359 624 q 407 685 396 661 q 418 739 418 709 q 407 792 418 768 q 378 834 396 817 q 335 864 359 853 q 282 875 311 875 q 229 864 254 875 q 186 834 203 853 q 117 903 140 880 q 191 954 149 935 q 282 972 235 972 q 373 954 330 972 q 448 903 415 935 q 496 829 479 872 q 515 739 515 787 q 496 647 515 690 q 448 574 479 605 q 441 567 444 571 q 433 562 437 564 q 465 538 450 551 q 495 514 481 528 "},"4":{"ha":741,"x_min":69,"x_max":670,"o":"m 670 601 q 670 506 670 529 q 491 506 536 506 q 491 0 491 126 q 395 0 419 0 q 395 506 395 380 q 69 506 151 506 q 69 601 69 578 q 395 972 313 879 q 491 972 468 972 q 491 601 491 694 q 670 601 625 601 m 194 601 q 395 601 345 601 q 395 838 395 780 q 194 601 244 661 "},"5":{"ha":743,"x_min":69,"x_max":673,"o":"m 591 506 q 650 412 629 465 q 673 300 671 359 q 648 183 673 239 q 583 88 624 127 q 487 23 543 47 q 370 -1 433 -1 q 252 23 308 -1 q 157 88 198 47 q 92 183 117 127 q 69 300 69 239 q 165 300 133 300 q 182 221 165 258 q 227 157 198 184 q 290 113 254 129 q 369 96 328 96 q 449 113 412 96 q 514 157 487 129 q 557 221 543 184 q 574 300 574 258 q 557 380 574 343 q 514 445 543 418 q 449 490 487 472 q 369 506 412 506 q 71 506 145 506 q 71 972 71 856 q 620 972 483 972 q 620 875 620 899 q 168 875 281 875 q 168 601 168 670 q 369 601 302 601 q 487 578 431 601 q 583 514 543 555 q 587 510 586 511 q 591 506 590 507 "},"6":{"ha":742,"x_min":69,"x_max":671,"o":"m 369 601 q 583 513 495 601 q 671 300 671 425 q 583 88 671 176 q 369 0 495 0 q 157 88 245 0 q 69 300 69 176 q 69 671 69 547 q 157 883 69 795 q 369 972 245 972 q 456 972 434 972 q 456 875 456 899 q 369 875 399 875 q 225 815 285 875 q 165 671 165 755 q 165 522 165 572 q 259 581 206 559 q 369 601 311 601 m 369 96 q 515 156 454 96 q 575 300 575 216 q 515 445 575 385 q 369 506 454 506 q 225 445 285 506 q 165 300 165 385 q 225 156 165 216 q 369 96 285 96 "},"7":{"ha":745,"x_min":69,"x_max":674,"o":"m 69 972 q 674 972 522 972 q 320 0 408 243 q 222 0 247 0 q 540 875 461 656 q 69 875 187 875 q 69 972 69 948 "},"8":{"ha":742,"x_min":69,"x_max":671,"o":"m 522 562 q 629 453 589 522 q 671 300 671 384 q 583 88 671 176 q 369 0 495 0 q 157 88 245 0 q 69 300 69 176 q 110 453 69 384 q 218 562 152 522 q 159 639 180 594 q 136 739 136 685 q 205 903 136 834 q 369 972 274 972 q 534 903 467 972 q 604 739 604 834 q 582 639 604 685 q 522 562 560 594 m 233 739 q 273 642 233 682 q 369 601 313 601 q 467 642 427 601 q 506 739 506 682 q 467 836 506 795 q 369 875 427 875 q 273 836 313 875 q 233 739 233 795 m 369 96 q 514 156 454 96 q 574 300 574 216 q 514 445 574 385 q 369 506 454 506 q 225 445 285 506 q 165 300 165 385 q 225 156 165 216 q 369 96 285 96 "},"9":{"ha":606,"x_min":69,"x_max":536,"o":"m 302 972 q 468 903 399 972 q 536 739 536 834 q 536 233 536 401 q 518 142 536 184 q 467 68 499 99 q 393 18 435 35 q 302 0 351 0 q 212 18 254 0 q 137 68 168 35 q 87 142 106 99 q 69 233 69 184 q 165 233 133 233 q 176 180 165 205 q 206 136 187 155 q 250 107 224 118 q 302 98 274 98 q 355 107 331 98 q 399 136 380 118 q 429 180 418 155 q 439 233 439 205 q 439 548 439 444 q 374 517 410 528 q 302 506 340 506 q 138 574 206 506 q 69 739 69 642 q 138 903 69 834 q 302 972 206 972 m 302 601 q 399 642 359 601 q 439 739 439 682 q 399 836 439 795 q 302 875 359 875 q 205 836 245 875 q 165 739 165 795 q 205 642 165 682 q 302 601 245 601 "},"\u0000":{"ha":0,"x_min":0,"x_max":0,"o":""},"\r":{"ha":0,"x_min":0,"x_max":0,"o":""}," ":{"ha":416,"x_min":0,"x_max":0,"o":""},"!":{"ha":262,"x_min":69,"x_max":190,"o":"m 129 0 q 87 18 104 0 q 69 60 69 35 q 87 103 69 84 q 129 121 104 121 q 172 103 155 121 q 190 60 190 84 q 172 18 190 35 q 129 0 155 0 m 178 203 q 80 203 104 203 q 80 972 80 780 q 178 972 153 972 q 178 203 178 395 "},"\"":{"ha":430,"x_min":69,"x_max":359,"o":"m 165 684 q 69 684 94 684 q 69 975 69 902 q 165 975 141 975 q 165 684 165 757 m 359 684 q 263 684 286 684 q 263 975 263 902 q 359 975 335 975 q 359 684 359 757 "},"#":{"ha":954,"x_min":69,"x_max":883,"o":"m 867 586 q 705 586 746 586 q 659 324 671 389 q 815 324 776 324 q 799 227 803 251 q 643 227 682 227 q 598 -19 610 42 q 500 -19 525 -19 q 544 227 533 165 q 311 227 369 227 q 267 -19 278 42 q 168 -19 193 -19 q 213 227 201 165 q 69 227 106 227 q 85 324 81 300 q 229 324 194 324 q 275 586 263 521 q 137 586 172 586 q 155 684 151 659 q 293 684 258 684 q 340 956 328 887 q 439 956 414 956 q 392 684 403 751 q 625 684 567 684 q 673 956 661 887 q 770 956 746 956 q 724 684 735 751 q 883 684 844 684 q 867 586 871 610 m 562 324 q 606 586 595 521 q 373 586 431 586 q 328 324 339 389 q 562 324 503 324 "},"$":{"ha":764,"x_min":69,"x_max":693,"o":"m 392 586 q 605 498 517 586 q 693 285 693 410 q 614 81 693 167 q 422 -15 537 -4 q 422 -212 422 -163 q 326 -212 350 -212 q 326 -16 326 -65 q 149 -16 193 -16 q 149 80 149 56 q 392 80 311 80 q 536 141 476 80 q 595 285 595 201 q 536 429 595 369 q 392 488 476 488 q 302 488 326 488 q 302 487 302 488 q 138 556 206 487 q 69 722 69 625 q 138 887 69 818 q 302 956 206 956 q 326 956 320 956 q 326 1150 326 1101 q 422 1150 397 1150 q 422 956 422 1004 q 594 956 552 956 q 594 859 594 883 q 302 859 400 859 q 206 818 247 859 q 165 722 165 779 q 206 625 165 665 q 302 585 247 585 q 392 585 369 585 q 392 586 392 586 "},"%":{"ha":939,"x_min":69,"x_max":868,"o":"m 750 956 q 868 956 838 956 q 187 -16 358 227 q 69 -16 99 -16 q 750 956 581 712 m 244 605 q 121 656 171 605 q 69 780 69 708 q 121 903 69 852 q 244 956 171 956 q 368 903 316 956 q 419 780 419 852 q 368 656 419 708 q 244 605 316 605 m 244 859 q 189 836 212 859 q 165 780 165 812 q 189 726 165 749 q 244 703 212 703 q 298 726 275 703 q 323 780 323 749 q 298 836 323 812 q 244 859 275 859 m 693 331 q 817 279 766 331 q 868 156 868 228 q 817 31 868 83 q 693 -19 766 -19 q 570 31 621 -19 q 518 156 518 83 q 570 279 518 228 q 693 331 621 331 m 693 77 q 749 100 726 77 q 770 156 770 123 q 749 210 770 187 q 693 233 726 233 q 637 210 661 233 q 616 156 616 187 q 637 100 616 123 q 693 77 661 77 "},"&":{"ha":814,"x_min":69,"x_max":743,"o":"m 654 136 q 743 -16 720 22 q 628 -16 656 -16 q 587 54 601 31 q 498 3 548 20 q 392 -16 448 -16 q 179 72 267 -16 q 91 285 91 160 q 148 460 91 382 q 292 568 205 537 q 69 956 125 859 q 690 956 534 956 q 690 859 690 883 q 239 859 351 859 q 591 244 475 449 q 595 264 594 254 q 595 285 595 274 q 595 387 595 361 q 693 387 669 387 q 693 285 693 319 q 684 206 693 244 q 654 136 673 170 m 392 80 q 472 98 434 80 q 537 141 510 114 q 342 481 407 369 q 231 411 275 465 q 187 285 187 355 q 247 141 187 201 q 392 80 308 80 "},"'":{"ha":236,"x_min":69,"x_max":165,"o":"m 165 663 q 69 663 94 663 q 69 956 69 883 q 165 956 141 956 q 165 663 165 736 "},"(":{"ha":408,"x_min":69,"x_max":338,"o":"m 338 857 q 229 761 270 857 q 168 540 189 663 q 153 407 159 473 q 149 285 149 340 q 153 163 149 229 q 168 30 159 96 q 229 -191 189 -95 q 338 -289 270 -289 q 338 -387 338 -354 q 184 -277 241 -387 q 98 -24 126 -168 q 76 134 83 54 q 69 285 69 214 q 76 435 69 355 q 98 593 83 515 q 184 845 126 736 q 338 954 243 954 q 338 857 338 882 "},")":{"ha":408,"x_min":69,"x_max":338,"o":"m 69 954 q 222 845 164 954 q 308 593 281 736 q 331 435 323 515 q 338 285 338 355 q 331 134 338 214 q 308 -24 323 54 q 222 -277 281 -168 q 69 -387 164 -387 q 69 -289 69 -321 q 178 -191 137 -289 q 237 30 218 -95 q 252 163 248 96 q 256 285 256 229 q 252 407 256 340 q 237 540 248 473 q 178 761 218 663 q 69 857 137 857 q 69 954 69 930 "},"*":{"ha":686,"x_min":69,"x_max":616,"o":"m 616 720 q 420 658 469 674 q 541 491 511 533 q 463 435 483 449 q 342 601 372 560 q 222 435 252 476 q 142 491 163 477 q 264 658 233 617 q 69 720 118 705 q 99 814 91 791 q 293 750 244 766 q 293 956 293 905 q 391 956 366 956 q 391 750 391 802 q 586 814 537 798 q 616 720 608 745 "},"+":{"ha":684,"x_min":69,"x_max":613,"o":"m 389 486 q 613 486 556 486 q 613 389 613 414 q 389 389 445 389 q 389 165 389 221 q 292 165 316 165 q 292 389 292 334 q 69 389 125 389 q 69 486 69 461 q 292 486 236 486 q 292 708 292 652 q 389 708 365 708 q 389 486 389 541 "},",":{"ha":236,"x_min":69,"x_max":165,"o":"m 165 -209 q 69 -209 94 -209 q 69 83 69 11 q 165 83 141 83 q 165 -209 165 -136 "},"-":{"ha":684,"x_min":69,"x_max":613,"o":"m 613 389 q 69 389 205 389 q 69 486 69 461 q 613 486 476 486 q 613 389 613 414 "},".":{"ha":262,"x_min":69,"x_max":190,"o":"m 129 0 q 87 18 104 0 q 69 60 69 35 q 87 103 69 84 q 129 121 104 121 q 172 103 155 121 q 190 60 190 84 q 172 18 190 35 q 129 0 155 0 "},"/":{"ha":700,"x_min":69,"x_max":629,"o":"m 522 956 q 629 956 602 956 q 176 -16 290 227 q 69 -16 96 -16 q 522 956 410 712 "},":":{"ha":262,"x_min":69,"x_max":190,"o":"m 129 0 q 87 18 104 0 q 69 60 69 35 q 87 103 69 84 q 129 121 104 121 q 172 103 155 121 q 190 60 190 84 q 172 18 190 35 q 129 0 155 0 m 129 182 q 87 199 104 182 q 69 243 69 218 q 87 286 69 269 q 129 304 104 304 q 172 286 155 304 q 190 243 190 269 q 172 199 190 218 q 129 182 155 182 "},";":{"ha":262,"x_min":69,"x_max":190,"o":"m 129 156 q 87 174 104 156 q 69 217 69 191 q 87 259 69 241 q 129 278 104 278 q 172 259 155 278 q 190 217 190 241 q 172 174 190 191 q 129 156 155 156 m 178 -209 q 80 -209 104 -209 q 80 83 80 11 q 178 83 153 83 q 178 -209 178 -136 "},"<":{"ha":705,"x_min":69,"x_max":635,"o":"m 635 601 q 635 506 635 529 q 251 300 347 351 q 635 96 538 146 q 635 0 635 24 q 160 252 278 190 q 69 300 92 288 q 69 301 69 301 q 160 350 137 338 q 635 601 515 538 "},"=":{"ha":684,"x_min":69,"x_max":613,"o":"m 613 245 q 69 245 205 245 q 69 343 69 319 q 613 343 476 343 q 613 245 613 270 m 613 488 q 69 488 205 488 q 69 586 69 562 q 613 586 476 586 q 613 488 613 513 "},">":{"ha":705,"x_min":69,"x_max":635,"o":"m 543 350 q 635 301 612 313 q 635 300 635 300 q 543 252 566 264 q 69 0 187 64 q 69 96 69 72 q 452 300 355 250 q 69 506 165 454 q 69 601 69 578 q 543 350 425 412 "},"?":{"ha":742,"x_min":69,"x_max":671,"o":"m 369 972 q 583 883 495 972 q 671 671 671 795 q 671 636 671 644 q 388 351 458 423 q 388 203 388 240 q 290 203 315 203 q 290 387 290 340 q 574 671 479 576 q 514 815 574 755 q 369 875 454 875 q 227 815 285 875 q 167 671 167 755 q 69 671 102 671 q 157 883 69 795 q 369 972 245 972 m 339 0 q 296 18 313 0 q 278 60 278 35 q 296 103 278 84 q 339 121 313 121 q 382 103 363 121 q 400 60 400 84 q 382 18 400 35 q 339 0 363 0 "},"@":{"ha":1482,"x_min":69,"x_max":1411,"o":"m 741 956 q 926 929 837 956 q 1093 854 1016 903 q 1324 616 1236 766 q 1411 285 1411 465 q 1402 179 1411 231 q 1379 80 1394 129 q 1360 30 1371 54 q 1339 -16 1351 7 q 699 -16 911 -16 q 486 72 574 -16 q 397 285 397 160 q 486 498 397 410 q 699 586 574 586 q 1000 586 925 586 q 1000 80 1000 208 q 1275 80 1183 80 q 1303 179 1294 127 q 1314 285 1314 231 q 1238 567 1314 438 q 1042 772 1164 696 q 899 836 975 812 q 741 859 823 859 q 581 836 658 859 q 438 772 505 812 q 240 567 316 696 q 165 285 165 438 q 240 1 165 130 q 438 -203 316 -127 q 581 -266 505 -244 q 741 -289 658 -289 q 741 -387 741 -354 q 410 -298 559 -387 q 170 -69 259 -212 q 96 98 122 8 q 69 285 69 187 q 156 616 69 465 q 387 854 244 766 q 553 929 464 903 q 741 956 643 956 m 903 80 q 903 488 903 387 q 699 488 766 488 q 553 429 613 488 q 495 285 495 369 q 553 141 495 201 q 699 80 613 80 q 903 80 852 80 "},"A":{"ha":944,"x_min":69,"x_max":873,"o":"m 873 0 q 776 0 800 0 q 471 837 547 628 q 165 0 241 209 q 69 0 94 0 q 422 972 334 730 q 519 972 495 972 q 873 0 785 243 "},"B":{"ha":817,"x_min":69,"x_max":746,"o":"m 595 562 q 705 453 663 522 q 746 300 746 384 q 658 88 746 176 q 445 0 570 0 q 69 0 163 0 q 69 972 69 730 q 445 972 320 972 q 609 903 541 972 q 678 738 678 834 q 655 639 678 685 q 595 562 633 594 m 445 98 q 589 156 529 98 q 648 301 648 216 q 590 444 648 385 q 449 505 532 503 q 446 505 448 505 q 445 505 445 505 q 445 602 445 570 q 446 602 445 602 q 449 601 448 601 q 543 643 503 604 q 581 738 581 682 q 541 834 581 793 q 445 875 500 875 q 165 875 235 875 q 165 98 165 292 q 445 98 374 98 "},"C":{"ha":970,"x_min":69,"x_max":899,"o":"m 829 212 q 899 141 875 165 q 745 38 833 76 q 556 0 655 0 q 366 38 454 0 q 212 141 277 76 q 107 296 145 208 q 69 486 69 385 q 107 675 69 586 q 212 829 145 764 q 366 933 277 895 q 556 972 454 972 q 700 972 663 972 q 700 875 700 899 q 556 875 604 875 q 403 844 475 875 q 281 760 332 812 q 197 637 228 708 q 165 486 165 567 q 197 334 165 404 q 281 212 228 263 q 403 127 332 157 q 556 96 475 96 q 707 127 636 96 q 829 212 777 157 "},"D":{"ha":863,"x_min":69,"x_max":792,"o":"m 305 972 q 441 954 376 972 q 562 899 506 935 q 728 726 665 836 q 792 486 792 617 q 728 245 792 355 q 562 73 665 137 q 441 19 506 38 q 305 0 376 0 q 69 0 129 0 q 69 972 69 730 q 305 972 247 972 m 305 98 q 414 113 362 98 q 510 156 465 127 q 644 294 593 206 q 694 486 694 381 q 644 678 694 590 q 510 817 593 765 q 414 860 465 845 q 305 875 362 875 q 165 875 201 875 q 165 98 165 292 q 305 98 270 98 "},"E":{"ha":795,"x_min":69,"x_max":724,"o":"m 724 875 q 167 875 307 875 q 167 601 167 670 q 652 601 532 601 q 652 506 652 529 q 167 506 288 506 q 167 98 167 199 q 724 98 585 98 q 724 0 724 24 q 69 0 233 0 q 69 972 69 730 q 724 972 560 972 q 724 875 724 899 "},"F":{"ha":795,"x_min":69,"x_max":724,"o":"m 724 875 q 167 875 307 875 q 167 601 167 670 q 652 601 532 601 q 652 506 652 529 q 167 506 288 506 q 167 0 167 126 q 69 0 94 0 q 69 972 69 730 q 724 972 560 972 q 724 875 724 899 "},"G":{"ha":970,"x_min":69,"x_max":899,"o":"m 556 601 q 899 601 812 601 q 899 141 899 294 q 745 38 833 76 q 556 0 655 0 q 366 38 454 0 q 212 141 277 76 q 107 296 145 208 q 69 486 69 385 q 107 675 69 586 q 212 829 145 764 q 366 933 277 895 q 556 972 454 972 q 556 875 556 907 q 403 844 475 875 q 281 760 332 812 q 197 637 228 708 q 167 486 167 567 q 197 334 167 404 q 281 212 228 263 q 403 127 332 157 q 556 98 475 98 q 689 121 625 98 q 802 184 751 142 q 802 506 802 426 q 556 506 617 506 q 556 601 556 578 "},"H":{"ha":891,"x_min":69,"x_max":821,"o":"m 724 972 q 821 972 796 972 q 821 0 821 243 q 724 0 747 0 q 724 506 724 380 q 167 506 307 506 q 167 0 167 126 q 69 0 94 0 q 69 972 69 730 q 167 972 142 972 q 167 601 167 694 q 724 601 585 601 q 724 972 724 879 "},"I":{"ha":237,"x_min":69,"x_max":167,"o":"m 167 0 q 69 0 94 0 q 69 972 69 730 q 167 972 142 972 q 167 0 167 243 "},"J":{"ha":237,"x_min":69,"x_max":167,"o":"m 167 -369 q 69 -369 94 -369 q 69 972 69 637 q 167 972 142 972 q 167 -369 167 -34 "},"K":{"ha":933,"x_min":69,"x_max":863,"o":"m 863 0 q 765 0 789 0 q 465 518 540 388 q 167 0 241 129 q 69 0 94 0 q 69 972 69 730 q 167 972 142 972 q 167 168 167 369 q 631 972 514 772 q 728 972 704 972 q 514 601 567 694 q 514 601 514 601 q 863 0 776 151 "},"L":{"ha":795,"x_min":69,"x_max":724,"o":"m 167 98 q 724 98 585 98 q 724 0 724 24 q 69 0 233 0 q 69 972 69 730 q 167 972 142 972 q 167 98 167 316 "},"M":{"ha":1073,"x_min":69,"x_max":1001,"o":"m 887 972 q 1001 972 972 972 q 1001 0 1001 243 q 905 0 929 0 q 905 861 905 646 q 591 506 670 594 q 477 506 506 506 q 167 861 244 772 q 167 0 167 216 q 69 0 94 0 q 69 972 69 730 q 183 972 155 972 q 534 570 446 670 q 887 972 799 872 "},"N":{"ha":799,"x_min":69,"x_max":728,"o":"m 631 972 q 728 972 704 972 q 728 0 728 243 q 631 0 655 0 q 167 803 282 602 q 167 0 167 201 q 69 0 94 0 q 69 972 69 730 q 167 972 142 972 q 631 168 514 369 q 631 972 631 772 "},"O":{"ha":1111,"x_min":69,"x_max":1042,"o":"m 556 875 q 363 825 450 875 q 224 690 275 773 q 180 594 197 646 q 165 486 165 543 q 216 294 165 381 q 350 156 267 208 q 446 113 395 127 q 556 98 499 98 q 663 113 612 98 q 760 156 715 127 q 894 294 842 206 q 944 486 944 381 q 894 678 944 590 q 760 817 842 765 q 663 860 715 845 q 556 875 612 875 m 69 486 q 88 621 69 556 q 142 742 107 686 q 315 909 206 845 q 556 972 425 972 q 795 909 686 972 q 968 742 905 845 q 1023 621 1004 686 q 1042 486 1042 556 q 978 245 1042 355 q 811 73 916 137 q 690 19 755 38 q 556 0 627 0 q 315 62 425 0 q 142 229 206 126 q 88 350 107 285 q 69 486 69 415 "},"P":{"ha":749,"x_min":69,"x_max":678,"o":"m 445 972 q 609 903 541 972 q 678 738 678 834 q 609 572 678 642 q 445 505 541 505 q 167 505 236 505 q 167 0 167 126 q 69 0 94 0 q 69 972 69 730 q 445 972 351 972 m 445 601 q 541 642 500 601 q 581 738 581 681 q 541 834 581 793 q 445 875 500 875 q 167 875 236 875 q 167 601 167 670 q 445 601 374 601 "},"Q":{"ha":1112,"x_min":69,"x_max":1042,"o":"m 1042 486 q 986 259 1042 363 q 836 88 929 155 q 727 31 787 53 q 604 1 669 8 q 604 -103 604 -77 q 506 -103 530 -103 q 506 1 506 -34 q 382 30 441 8 q 274 88 324 53 q 125 259 182 155 q 69 486 69 363 q 88 621 69 556 q 142 742 107 686 q 315 909 206 845 q 556 972 425 972 q 795 909 686 972 q 968 742 905 845 q 1023 621 1004 686 q 1042 486 1042 556 m 604 100 q 773 164 697 111 q 894 294 849 216 q 932 385 918 336 q 944 486 944 434 q 894 677 944 590 q 760 815 842 765 q 663 859 715 844 q 556 873 612 873 q 363 823 450 873 q 224 690 275 773 q 180 594 195 646 q 165 486 165 543 q 209 308 165 389 q 326 172 252 225 q 410 125 363 144 q 506 100 456 106 q 506 189 506 167 q 604 189 579 189 q 604 100 604 122 "},"R":{"ha":807,"x_min":69,"x_max":736,"o":"m 445 505 q 736 0 663 126 q 623 0 651 0 q 331 505 403 378 q 167 505 208 505 q 167 0 167 126 q 69 0 94 0 q 69 972 69 730 q 445 972 320 972 q 609 903 541 972 q 678 738 678 834 q 609 572 678 642 q 445 505 541 505 m 167 601 q 445 601 351 601 q 541 642 500 601 q 581 738 581 681 q 541 834 581 793 q 445 875 500 875 q 167 875 236 875 q 167 601 167 670 "},"S":{"ha":764,"x_min":69,"x_max":693,"o":"m 392 601 q 605 513 517 601 q 693 300 693 425 q 605 88 693 176 q 392 0 517 0 q 149 0 209 0 q 149 98 149 73 q 392 98 311 98 q 536 156 476 98 q 595 301 595 216 q 536 446 595 385 q 392 506 476 506 q 302 506 326 506 q 302 505 302 505 q 138 572 206 505 q 69 738 69 642 q 138 903 69 834 q 302 972 206 972 q 594 972 522 972 q 594 875 594 899 q 302 875 400 875 q 206 834 247 875 q 165 738 165 793 q 206 642 165 681 q 302 601 247 601 q 392 601 369 601 q 392 601 392 601 "},"T":{"ha":770,"x_min":69,"x_max":700,"o":"m 700 972 q 700 875 700 899 q 433 875 500 875 q 433 0 433 218 q 336 0 361 0 q 336 875 336 656 q 69 875 136 875 q 69 972 69 948 q 700 972 543 972 "},"U":{"ha":792,"x_min":69,"x_max":720,"o":"m 624 972 q 720 972 697 972 q 720 326 720 541 q 708 235 720 278 q 671 155 696 191 q 556 42 629 84 q 395 0 483 0 q 304 12 347 0 q 224 49 260 26 q 111 165 153 92 q 69 326 69 237 q 69 972 69 811 q 165 972 141 972 q 165 326 165 541 q 232 163 165 231 q 395 96 300 96 q 556 163 490 96 q 624 326 624 231 q 624 972 624 811 "},"V":{"ha":944,"x_min":69,"x_max":873,"o":"m 776 972 q 873 972 849 972 q 519 0 608 243 q 422 0 446 0 q 69 972 157 730 q 165 972 141 972 q 471 133 395 343 q 776 972 700 762 "},"W":{"ha":1145,"x_min":69,"x_max":1074,"o":"m 977 972 q 1074 972 1050 972 q 812 0 878 243 q 715 0 739 0 q 571 538 606 404 q 426 0 463 134 q 330 0 354 0 q 69 972 134 730 q 167 972 142 972 q 378 180 326 378 q 522 720 486 586 q 620 720 595 720 q 764 180 728 316 q 977 972 924 774 "},"X":{"ha":831,"x_min":69,"x_max":761,"o":"m 761 0 q 663 0 688 0 q 415 430 477 323 q 165 0 228 107 q 69 0 94 0 q 366 515 293 387 q 103 972 168 859 q 199 972 176 972 q 415 600 361 693 q 631 972 576 879 q 728 972 704 972 q 464 515 530 629 q 761 0 686 129 "},"Y":{"ha":764,"x_min":69,"x_max":693,"o":"m 595 972 q 693 972 669 972 q 429 515 495 629 q 429 0 429 129 q 332 0 357 0 q 332 515 332 387 q 69 972 136 859 q 165 972 141 972 q 381 600 327 693 q 595 972 543 879 "},"Z":{"ha":789,"x_min":69,"x_max":718,"o":"m 171 98 q 718 98 582 98 q 718 0 718 24 q 69 0 232 0 q 69 98 69 73 q 598 875 467 681 q 85 875 214 875 q 85 972 85 948 q 700 972 547 972 q 700 875 700 899 q 700 875 700 875 q 171 98 302 292 "},"[":{"ha":430,"x_min":69,"x_max":359,"o":"m 359 875 q 165 875 214 875 q 165 -274 165 14 q 359 -274 311 -274 q 359 -369 359 -346 q 69 -369 142 -369 q 69 972 69 637 q 359 972 288 972 q 359 875 359 899 "},"\\":{"ha":700,"x_min":69,"x_max":629,"o":"m 69 972 q 176 972 149 972 q 629 0 515 243 q 522 0 549 0 q 69 972 183 730 "},"]":{"ha":430,"x_min":69,"x_max":359,"o":"m 69 972 q 359 972 288 972 q 359 -369 359 -34 q 69 -369 142 -369 q 69 -274 69 -297 q 264 -274 216 -274 q 264 875 264 587 q 69 875 118 875 q 69 972 69 948 "},"_":{"ha":917,"x_min":69,"x_max":846,"o":"m 846 -117 q 69 -117 263 -117 q 69 -19 69 -43 q 846 -19 652 -19 q 846 -117 846 -92 "},"`":{"ha":416,"x_min":69,"x_max":346,"o":"m 180 972 q 346 686 305 758 q 233 686 262 686 q 69 972 110 901 q 180 972 153 972 "},"a":{"ha":742,"x_min":69,"x_max":671,"o":"m 369 601 q 671 601 595 601 q 671 -1 671 149 q 369 -1 469 -1 q 157 87 245 -1 q 69 300 69 176 q 157 513 69 425 q 369 601 245 601 m 575 96 q 575 506 575 403 q 369 506 438 506 q 225 445 285 506 q 165 300 165 385 q 225 156 165 216 q 369 96 285 96 q 575 96 524 96 "},"b":{"ha":743,"x_min":69,"x_max":673,"o":"m 369 601 q 583 513 495 601 q 673 300 671 425 q 633 152 673 220 q 529 43 593 84 q 454 11 495 23 q 370 -1 414 -1 q 69 -1 145 -1 q 69 972 69 728 q 167 972 142 972 q 167 601 167 694 q 369 601 319 601 m 369 96 q 515 156 454 96 q 575 300 575 216 q 515 445 575 385 q 370 506 456 506 q 167 506 218 506 q 167 96 167 198 q 369 96 319 96 "},"c":{"ha":654,"x_min":69,"x_max":583,"o":"m 514 157 q 583 88 560 111 q 487 23 543 47 q 370 -1 433 -1 q 252 23 308 -1 q 157 88 198 47 q 92 183 117 127 q 69 300 69 239 q 92 418 69 362 q 157 514 117 473 q 239 571 193 549 q 336 600 283 594 q 336 600 336 600 q 433 600 410 600 q 433 506 433 529 q 370 506 392 506 q 290 490 328 506 q 227 445 254 472 q 183 380 198 418 q 167 300 167 343 q 183 221 167 258 q 227 157 198 184 q 290 113 254 129 q 370 96 328 96 q 450 113 412 96 q 514 157 487 129 "},"d":{"ha":743,"x_min":69,"x_max":673,"o":"m 575 972 q 673 972 648 972 q 673 -1 673 241 q 369 -1 471 -1 q 157 87 245 -1 q 69 300 69 176 q 157 513 69 425 q 369 601 245 601 q 575 601 524 601 q 575 972 575 879 m 575 96 q 575 506 575 403 q 369 506 438 506 q 225 445 285 506 q 165 300 165 385 q 225 156 165 216 q 369 96 285 96 q 575 96 524 96 "},"e":{"ha":743,"x_min":69,"x_max":673,"o":"m 370 96 q 450 113 412 96 q 514 157 487 129 q 583 88 560 111 q 487 23 543 47 q 370 -1 433 -1 q 252 23 308 -1 q 157 88 198 47 q 92 183 117 127 q 69 300 69 239 q 92 418 69 362 q 157 514 117 473 q 252 578 198 555 q 370 601 308 601 q 487 578 433 601 q 583 514 543 555 q 648 418 624 473 q 673 300 673 362 q 167 300 335 300 q 183 221 167 258 q 227 157 198 184 q 290 113 254 129 q 370 96 328 96 m 227 445 q 206 422 216 434 q 190 397 198 411 q 551 397 430 397 q 533 422 543 411 q 514 445 525 434 q 450 490 487 472 q 370 506 412 506 q 290 490 328 506 q 227 445 254 472 "},"f":{"ha":442,"x_min":69,"x_max":370,"o":"m 370 875 q 225 815 285 875 q 165 671 165 755 q 167 671 167 671 q 167 601 167 618 q 370 601 320 601 q 370 506 370 529 q 167 506 218 506 q 167 0 167 126 q 69 0 94 0 q 69 671 69 448 q 157 883 69 795 q 370 972 245 972 q 370 875 370 899 "},"g":{"ha":742,"x_min":69,"x_max":671,"o":"m 369 601 q 583 513 495 601 q 671 300 671 425 q 671 -68 671 54 q 583 -281 671 -193 q 369 -369 495 -369 q 157 -281 245 -369 q 69 -68 69 -193 q 165 -68 133 -68 q 225 -213 165 -153 q 369 -273 285 -273 q 515 -213 454 -273 q 575 -68 575 -153 q 575 79 575 30 q 481 20 534 42 q 369 -1 429 -1 q 157 87 245 -1 q 69 300 69 176 q 157 513 69 425 q 369 601 245 601 m 369 96 q 515 156 454 96 q 575 300 575 216 q 515 445 575 385 q 369 506 454 506 q 225 445 285 506 q 165 300 165 385 q 225 156 165 216 q 369 96 285 96 "},"h":{"ha":742,"x_min":69,"x_max":671,"o":"m 369 601 q 583 513 495 601 q 671 300 671 425 q 671 0 671 75 q 575 0 600 0 q 575 300 575 199 q 515 445 575 385 q 369 505 454 505 q 227 445 286 505 q 167 301 167 385 q 167 0 167 76 q 69 0 94 0 q 69 971 69 728 q 167 971 142 971 q 167 522 167 671 q 259 581 206 560 q 369 601 311 601 "},"i":{"ha":237,"x_min":69,"x_max":167,"o":"m 167 0 q 69 0 94 0 q 69 601 69 452 q 167 601 142 601 q 167 0 167 151 m 118 750 q 83 765 98 750 q 69 799 69 779 q 83 833 69 818 q 118 848 98 848 q 152 833 138 848 q 167 799 167 818 q 152 765 167 779 q 118 750 138 750 "},"j":{"ha":237,"x_min":69,"x_max":167,"o":"m 167 -369 q 69 -369 94 -369 q 69 601 69 358 q 167 601 142 601 q 167 -369 167 -126 m 118 750 q 83 765 98 750 q 69 799 69 779 q 83 833 69 818 q 118 848 98 848 q 152 833 138 848 q 167 799 167 818 q 152 765 167 779 q 118 750 138 750 "},"k":{"ha":724,"x_min":69,"x_max":652,"o":"m 411 416 q 652 0 593 104 q 556 0 581 0 q 362 334 411 250 q 165 0 214 83 q 69 0 94 0 q 69 971 69 728 q 165 971 141 971 q 165 164 165 366 q 423 601 359 492 q 521 601 496 601 q 411 416 438 463 "},"l":{"ha":442,"x_min":69,"x_max":370,"o":"m 165 301 q 225 156 165 216 q 370 98 285 98 q 370 0 370 33 q 157 88 245 0 q 69 301 69 176 q 69 972 69 804 q 167 972 142 972 q 165 301 165 469 "},"m":{"ha":911,"x_min":69,"x_max":841,"o":"m 623 601 q 777 538 713 601 q 841 385 841 475 q 841 0 841 96 q 743 0 768 0 q 743 385 743 256 q 708 471 743 435 q 623 506 673 506 q 538 471 574 506 q 503 385 503 435 q 503 0 503 96 q 406 0 430 0 q 406 385 406 256 q 370 471 406 435 q 286 506 335 506 q 201 471 236 506 q 165 385 165 435 q 165 0 165 96 q 69 0 94 0 q 69 385 69 256 q 133 538 69 475 q 286 601 195 601 q 381 581 338 601 q 454 522 425 559 q 529 581 484 559 q 623 601 572 601 "},"n":{"ha":623,"x_min":69,"x_max":552,"o":"m 309 601 q 480 532 410 601 q 552 361 552 461 q 552 0 552 91 q 454 0 479 0 q 454 361 454 240 q 412 463 454 420 q 309 506 370 506 q 208 463 251 506 q 165 361 165 420 q 165 0 165 91 q 69 0 94 0 q 69 361 69 240 q 140 532 69 461 q 309 601 210 601 "},"o":{"ha":742,"x_min":69,"x_max":671,"o":"m 369 601 q 583 513 495 601 q 671 300 671 425 q 583 87 671 176 q 369 -1 495 -1 q 157 87 245 -1 q 69 300 69 176 q 157 513 69 425 q 369 601 245 601 m 369 96 q 515 156 454 96 q 575 300 575 216 q 515 445 575 385 q 369 506 454 506 q 225 445 285 506 q 165 300 165 385 q 225 156 165 216 q 369 96 285 96 "},"p":{"ha":685,"x_min":69,"x_max":614,"o":"m 312 601 q 525 513 437 601 q 614 300 614 425 q 574 152 614 220 q 471 43 534 84 q 396 11 437 23 q 312 -1 355 -1 q 165 -1 202 -1 q 165 -370 165 -278 q 69 -370 94 -370 q 69 601 69 358 q 312 601 252 601 m 312 96 q 457 156 397 96 q 517 300 517 216 q 457 445 517 385 q 312 506 397 506 q 165 506 202 506 q 165 96 165 198 q 312 96 275 96 "},"q":{"ha":684,"x_min":69,"x_max":613,"o":"m 369 601 q 613 601 552 601 q 613 -370 613 -127 q 515 -370 540 -370 q 515 -1 515 -94 q 369 -1 418 -1 q 157 87 245 -1 q 69 300 69 176 q 157 513 69 425 q 369 601 245 601 m 515 96 q 515 506 515 403 q 369 506 418 506 q 225 445 285 506 q 165 300 165 385 q 225 156 165 216 q 369 96 285 96 q 515 96 479 96 "},"r":{"ha":442,"x_min":69,"x_max":370,"o":"m 69 300 q 157 513 69 425 q 370 601 245 601 q 370 506 370 537 q 227 445 285 506 q 167 300 167 385 q 167 0 167 75 q 69 0 94 0 q 69 300 69 225 "},"s":{"ha":576,"x_min":69,"x_max":506,"o":"m 332 350 q 454 298 404 350 q 506 174 506 247 q 454 50 506 102 q 332 -1 404 -1 q 115 -1 170 -1 q 115 96 115 72 q 331 96 277 96 q 331 96 331 96 q 385 119 363 96 q 408 174 408 142 q 385 229 408 206 q 331 251 363 251 q 331 251 331 251 q 244 251 266 251 q 244 251 244 251 q 243 251 243 251 q 243 251 243 251 q 241 251 241 251 q 241 252 241 252 q 119 304 170 252 q 69 426 69 354 q 119 551 69 499 q 241 601 170 601 q 241 602 241 602 q 437 602 388 602 q 437 506 437 530 q 244 506 308 506 q 190 481 212 506 q 167 426 167 458 q 189 373 167 395 q 243 350 210 350 q 332 350 309 350 "},"t":{"ha":442,"x_min":69,"x_max":370,"o":"m 167 506 q 167 301 167 353 q 165 301 165 301 q 225 156 165 216 q 370 98 285 98 q 370 0 370 33 q 157 88 245 0 q 69 301 69 176 q 69 972 69 804 q 167 972 142 972 q 167 601 167 694 q 370 601 320 601 q 370 506 370 529 q 167 506 218 506 "},"u":{"ha":623,"x_min":69,"x_max":552,"o":"m 454 601 q 552 601 528 601 q 552 240 552 361 q 480 71 552 140 q 309 0 410 0 q 140 71 210 0 q 69 240 69 140 q 69 601 69 511 q 165 601 141 601 q 165 240 165 361 q 208 140 165 180 q 309 98 251 98 q 412 140 370 98 q 454 240 454 180 q 454 601 454 511 "},"v":{"ha":675,"x_min":69,"x_max":604,"o":"m 507 601 q 604 601 581 601 q 385 -1 439 149 q 288 -1 312 -1 q 69 601 123 450 q 165 601 141 601 q 336 133 293 251 q 507 601 464 484 "},"w":{"ha":803,"x_min":69,"x_max":732,"o":"m 635 601 q 732 601 708 601 q 570 -1 610 149 q 472 -1 496 -1 q 400 270 418 202 q 328 -1 346 66 q 231 -1 255 -1 q 69 601 110 450 q 165 601 141 601 q 279 180 251 286 q 351 452 334 384 q 449 452 425 452 q 521 180 503 248 q 635 601 606 496 "},"x":{"ha":601,"x_min":69,"x_max":530,"o":"m 349 315 q 530 -1 486 77 q 433 -1 457 -1 q 300 232 334 174 q 167 -1 199 57 q 69 -1 94 -1 q 251 315 206 236 q 85 601 127 530 q 183 601 159 601 q 300 400 271 450 q 416 601 388 551 q 514 601 490 601 q 349 315 389 387 "},"y":{"ha":677,"x_min":69,"x_max":605,"o":"m 509 601 q 605 601 582 601 q 387 -3 441 148 q 338 -136 350 -103 q 251 -369 273 -311 q 155 -369 179 -369 q 289 -3 255 -95 q 69 601 125 450 q 165 601 141 601 q 338 132 294 250 q 509 601 465 484 "},"z":{"ha":589,"x_min":69,"x_max":518,"o":"m 187 81 q 518 81 435 81 q 518 -1 518 19 q 69 -1 182 -1 q 69 81 69 61 q 381 519 302 410 q 85 519 160 519 q 85 601 85 581 q 500 601 396 601 q 500 519 500 540 q 187 81 266 191 "},"{":{"ha":605,"x_min":69,"x_max":534,"o":"m 399 738 q 399 425 399 503 q 210 301 256 332 q 399 176 351 208 q 399 -136 399 -33 q 438 -233 399 -193 q 534 -274 479 -274 q 534 -369 534 -338 q 370 -301 438 -369 q 301 -136 301 -233 q 301 142 301 73 q 69 301 127 262 q 301 458 243 419 q 301 738 301 644 q 370 903 301 834 q 534 972 438 972 q 534 875 534 907 q 438 834 479 875 q 399 738 399 793 "},"|":{"ha":229,"x_min":69,"x_max":167,"o":"m 167 -369 q 69 -369 94 -369 q 69 972 69 637 q 167 972 142 972 q 167 -369 167 -34 "},"}":{"ha":605,"x_min":69,"x_max":534,"o":"m 302 458 q 534 301 476 340 q 302 142 361 183 q 302 -136 302 -43 q 235 -301 302 -233 q 69 -369 165 -369 q 69 -274 69 -305 q 165 -233 126 -274 q 206 -136 206 -193 q 206 176 206 98 q 393 301 346 270 q 206 425 252 395 q 206 738 206 633 q 165 834 206 793 q 69 875 126 875 q 69 972 69 940 q 235 903 165 972 q 302 738 302 834 q 302 458 302 528 "},"~":{"ha":1146,"x_min":69,"x_max":1076,"o":"m 842 601 q 1006 533 939 601 q 1076 368 1076 465 q 1006 203 1076 273 q 842 134 939 134 q 825 134 829 134 q 302 506 477 382 q 206 465 247 506 q 165 368 165 425 q 206 271 165 312 q 302 232 247 232 q 302 134 302 167 q 138 203 206 134 q 69 368 69 273 q 138 533 69 465 q 302 601 206 601 q 320 601 315 601 q 842 232 667 355 q 937 271 898 232 q 978 368 978 312 q 937 465 978 425 q 842 506 898 506 q 842 601 842 578 "}," ":{"ha":416,"x_min":0,"x_max":0,"o":""},"¡":{"ha":262,"x_min":69,"x_max":190,"o":"m 129 480 q 87 499 104 480 q 69 541 69 517 q 87 585 69 567 q 129 602 104 602 q 172 585 155 602 q 190 541 190 567 q 172 499 190 517 q 129 480 155 480 m 178 -369 q 80 -369 104 -369 q 80 399 80 206 q 178 399 153 399 q 178 -369 178 -178 "},"¢":{"ha":654,"x_min":69,"x_max":583,"o":"m 514 140 q 583 71 560 94 q 515 19 553 41 q 433 -9 477 -1 q 433 -187 433 -142 q 336 -187 361 -187 q 336 -15 336 -73 q 239 14 283 -9 q 157 71 193 35 q 92 167 117 113 q 69 285 69 222 q 92 401 69 347 q 157 498 117 457 q 239 555 193 533 q 336 583 283 578 q 336 774 336 727 q 433 774 410 774 q 433 488 433 560 q 369 488 391 488 q 290 472 328 488 q 227 429 254 456 q 183 363 198 401 q 167 285 167 327 q 183 205 167 241 q 227 140 198 167 q 290 96 254 113 q 369 80 328 80 q 449 96 412 80 q 514 140 487 113 "},"£":{"ha":848,"x_min":69,"x_max":776,"o":"m 313 80 q 776 80 661 80 q 776 -16 776 8 q 313 -16 430 -16 q 313 -16 313 -16 q 217 -16 241 -16 q 217 387 217 285 q 69 387 106 387 q 69 454 69 437 q 217 454 180 454 q 217 722 217 633 q 235 812 217 770 q 285 887 254 856 q 358 937 316 918 q 450 956 401 956 q 540 937 498 956 q 616 887 583 918 q 665 812 647 856 q 684 722 684 770 q 586 722 618 722 q 575 774 586 750 q 545 818 564 799 q 503 848 528 837 q 450 859 479 859 q 397 848 422 859 q 354 818 372 837 q 324 774 335 799 q 313 722 313 750 q 313 722 313 722 q 313 454 313 521 q 559 454 498 454 q 559 387 559 403 q 313 387 374 387 q 313 80 313 157 "},"¤":{"ha":621,"x_min":69,"x_max":551,"o":"m 515 381 q 503 312 515 345 q 471 252 491 279 q 551 174 530 194 q 515 138 524 148 q 437 218 463 191 q 377 186 410 197 q 309 174 345 174 q 240 186 273 174 q 182 218 208 197 q 103 138 122 159 q 69 174 77 165 q 148 252 121 227 q 115 312 127 279 q 104 381 104 345 q 115 449 104 416 q 148 507 127 481 q 69 586 90 567 q 103 621 95 612 q 182 541 156 568 q 240 574 208 563 q 309 586 273 586 q 377 574 345 586 q 437 541 410 563 q 515 621 495 601 q 551 586 541 595 q 471 507 498 533 q 503 449 491 481 q 515 381 515 416 m 401 323 q 414 350 408 335 q 418 381 418 363 q 414 411 418 396 q 401 438 408 425 q 387 457 395 448 q 366 472 377 465 q 339 484 354 480 q 309 488 326 488 q 279 484 294 488 q 251 472 264 480 q 233 457 241 465 q 218 438 224 448 q 206 411 210 425 q 201 381 201 396 q 206 350 201 363 q 218 323 210 335 q 233 304 224 312 q 251 288 241 294 q 279 275 264 281 q 309 271 294 271 q 339 275 326 271 q 366 288 354 281 q 387 304 377 294 q 401 323 395 312 "},"¥":{"ha":765,"x_min":69,"x_max":694,"o":"m 694 420 q 430 420 496 420 q 430 324 430 349 q 694 324 628 324 q 694 255 694 273 q 430 255 496 255 q 430 -16 430 52 q 334 -16 358 -16 q 334 255 334 187 q 69 255 136 255 q 69 324 69 307 q 334 324 267 324 q 334 420 334 396 q 69 420 136 420 q 69 488 69 472 q 334 488 267 488 q 334 499 334 496 q 69 956 136 841 q 167 956 142 956 q 382 583 328 677 q 595 956 543 863 q 693 956 669 956 q 430 499 496 613 q 430 488 430 491 q 694 488 628 488 q 694 420 694 438 "},"§":{"ha":739,"x_min":69,"x_max":669,"o":"m 600 77 q 544 35 575 52 q 480 14 514 20 q 605 -103 574 -73 q 605 -136 605 -125 q 537 -301 605 -233 q 372 -369 469 -369 q 208 -301 275 -369 q 138 -136 138 -233 q 236 -136 203 -136 q 277 -232 236 -193 q 372 -273 316 -273 q 468 -232 429 -273 q 509 -136 509 -193 q 289 61 362 -4 q 282 68 286 64 q 277 73 279 71 q 208 136 224 121 q 137 199 160 179 q 87 278 103 235 q 69 365 69 320 q 87 453 69 410 q 137 530 103 496 q 193 571 163 556 q 256 594 224 587 q 138 704 168 677 q 138 738 138 727 q 208 903 138 834 q 372 972 275 972 q 537 903 469 972 q 605 738 605 834 q 509 738 541 738 q 468 834 509 793 q 372 875 429 875 q 277 836 316 875 q 236 738 236 795 q 449 545 378 610 q 457 538 453 543 q 467 529 461 534 q 537 465 519 481 q 600 407 579 426 q 669 243 669 339 q 600 77 669 145 m 206 269 q 275 205 258 220 q 338 146 316 165 q 435 106 378 106 q 532 146 491 106 q 571 243 571 186 q 532 339 571 300 q 468 397 484 382 q 399 463 422 441 q 354 492 378 483 q 302 502 328 502 q 251 491 277 502 q 206 461 225 481 q 176 416 186 441 q 167 365 167 392 q 176 315 167 339 q 206 269 186 289 "},"©":{"ha":1207,"x_min":69,"x_max":1137,"o":"m 605 96 q 685 111 647 96 q 750 156 722 127 q 818 85 795 110 q 723 22 777 46 q 605 -1 669 -1 q 488 22 543 -1 q 392 85 433 46 q 328 183 351 127 q 304 300 304 237 q 328 418 304 362 q 392 513 351 472 q 488 578 433 555 q 605 601 543 601 q 684 601 663 601 q 684 505 684 529 q 605 505 632 505 q 525 488 563 505 q 461 445 488 472 q 418 378 433 416 q 401 300 401 342 q 418 221 401 258 q 461 156 433 183 q 525 111 488 127 q 605 96 563 96 m 602 833 q 865 764 746 833 q 1057 581 986 694 q 1115 449 1095 519 q 1137 300 1137 377 q 1066 37 1137 156 q 884 -153 997 -83 q 751 -213 822 -191 q 602 -233 680 -233 q 339 -164 458 -233 q 149 19 220 -95 q 91 152 111 80 q 69 300 69 222 q 91 449 69 377 q 149 581 111 519 q 339 764 220 694 q 602 833 458 833 m 602 -136 q 818 -79 720 -136 q 974 71 916 -22 q 1021 179 1005 121 q 1039 300 1039 237 q 1021 420 1039 363 q 974 529 1005 479 q 818 680 916 623 q 602 736 720 736 q 387 680 484 736 q 231 529 289 623 q 182 420 199 479 q 165 300 165 363 q 222 85 165 183 q 372 -71 279 -14 q 481 -119 423 -102 q 602 -136 540 -136 "},"­":{"ha":0,"x_min":0,"x_max":0,"o":""},"®":{"ha":510,"x_min":69,"x_max":439,"o":"m 320 848 q 305 812 320 826 q 270 798 290 798 q 332 689 316 716 q 307 689 313 689 q 244 798 260 770 q 210 798 218 798 q 210 689 210 716 q 189 689 194 689 q 189 898 189 845 q 270 898 243 898 q 305 883 290 898 q 320 848 320 868 m 210 818 q 270 818 250 818 q 290 826 281 818 q 298 848 298 834 q 290 868 298 859 q 270 876 281 876 q 210 876 225 876 q 210 818 210 833 m 254 972 q 385 918 330 972 q 439 788 439 864 q 385 656 439 711 q 254 601 330 601 q 123 656 178 601 q 69 788 69 711 q 123 918 69 864 q 254 972 178 972 m 254 636 q 359 681 316 636 q 404 787 404 724 q 359 892 404 849 q 254 937 316 937 q 148 892 191 937 q 103 787 103 849 q 148 681 103 724 q 254 636 191 636 "},"µ":{"ha":623,"x_min":69,"x_max":552,"o":"m 454 601 q 552 601 528 601 q 552 0 552 151 q 454 0 479 0 q 454 47 454 31 q 387 12 425 24 q 309 0 350 0 q 232 12 269 0 q 165 47 195 24 q 165 -369 165 -266 q 69 -369 94 -369 q 69 601 69 358 q 165 601 141 601 q 165 240 165 361 q 208 138 165 180 q 309 96 251 96 q 412 138 370 96 q 454 240 454 180 q 454 601 454 511 "},"¶":{"ha":665,"x_min":69,"x_max":594,"o":"m 594 972 q 594 875 594 899 q 557 875 567 875 q 557 0 557 218 q 460 0 484 0 q 460 875 460 656 q 351 875 378 875 q 351 0 351 218 q 254 0 278 0 q 254 601 254 401 q 123 655 178 601 q 69 787 69 711 q 123 918 69 863 q 254 972 178 972 q 594 972 510 972 "},"¿":{"ha":742,"x_min":69,"x_max":671,"o":"m 574 -69 q 671 -69 639 -69 q 583 -281 671 -194 q 369 -369 495 -369 q 157 -281 245 -369 q 69 -69 69 -194 q 69 -35 69 -43 q 353 250 282 179 q 353 399 353 361 q 450 399 426 399 q 450 216 450 262 q 167 -69 262 26 q 227 -214 167 -153 q 369 -274 285 -274 q 514 -214 454 -274 q 574 -69 574 -153 m 401 480 q 358 499 377 480 q 340 541 340 517 q 358 585 340 567 q 401 602 377 602 q 445 585 426 602 q 463 541 463 567 q 445 499 463 517 q 401 480 426 480 "},"À":{"ha":944,"x_min":69,"x_max":873,"o":"m 519 972 q 873 0 785 243 q 776 0 800 0 q 471 837 547 628 q 165 0 241 209 q 69 0 94 0 q 422 972 334 730 q 519 972 495 972 m 503 1057 q 423 1057 444 1057 q 308 1256 338 1206 q 388 1256 368 1256 q 503 1057 473 1107 "},"Á":{"ha":944,"x_min":69,"x_max":873,"o":"m 519 972 q 873 0 785 243 q 776 0 800 0 q 471 837 547 628 q 165 0 241 209 q 69 0 94 0 q 422 972 334 730 q 519 972 495 972 m 633 1256 q 518 1057 547 1107 q 441 1057 460 1057 q 556 1256 526 1206 q 633 1256 614 1256 "},"Â":{"ha":944,"x_min":69,"x_max":873,"o":"m 519 972 q 873 0 785 243 q 776 0 800 0 q 471 837 547 628 q 165 0 241 209 q 69 0 94 0 q 422 972 334 730 q 519 972 495 972 m 472 1203 q 368 1057 395 1093 q 289 1057 309 1057 q 471 1316 426 1251 q 654 1057 609 1122 q 575 1057 595 1057 q 472 1203 498 1166 "},"Ã":{"ha":944,"x_min":69,"x_max":873,"o":"m 519 972 q 873 0 785 243 q 776 0 800 0 q 471 837 547 628 q 167 0 243 209 q 69 0 94 0 q 422 972 334 730 q 519 972 495 972 m 326 1057 q 243 1090 277 1057 q 209 1173 209 1124 q 243 1256 209 1222 q 326 1290 277 1290 q 334 1290 331 1290 q 594 1105 507 1168 q 643 1126 623 1105 q 663 1173 663 1146 q 643 1222 663 1202 q 594 1241 623 1241 q 594 1290 594 1274 q 678 1256 643 1290 q 712 1173 712 1222 q 678 1090 712 1124 q 594 1057 643 1057 q 586 1057 589 1057 q 326 1241 412 1180 q 277 1222 297 1241 q 256 1173 256 1202 q 277 1126 256 1146 q 326 1105 297 1105 q 326 1057 326 1069 "},"Ä":{"ha":944,"x_min":69,"x_max":873,"o":"m 519 972 q 873 0 785 243 q 776 0 800 0 q 471 837 547 628 q 167 0 243 209 q 69 0 94 0 q 422 972 334 730 q 519 972 495 972 m 267 1057 q 224 1074 241 1057 q 206 1116 206 1092 q 224 1160 206 1142 q 267 1177 241 1177 q 309 1160 292 1177 q 328 1116 328 1142 q 309 1074 328 1092 q 267 1057 292 1057 m 677 1057 q 633 1074 650 1057 q 616 1116 616 1092 q 633 1160 616 1142 q 677 1177 650 1177 q 719 1160 701 1177 q 736 1116 736 1142 q 719 1074 736 1092 q 677 1057 701 1057 "},"Å":{"ha":944,"x_min":69,"x_max":873,"o":"m 519 972 q 873 0 785 243 q 776 0 800 0 q 471 837 547 628 q 165 0 241 209 q 69 0 94 0 q 422 972 334 730 q 519 972 495 972 m 471 1050 q 385 1086 420 1050 q 349 1173 349 1123 q 385 1260 349 1223 q 471 1295 420 1295 q 557 1260 522 1295 q 593 1173 593 1223 q 557 1086 593 1123 q 471 1050 522 1050 m 471 1227 q 433 1211 449 1227 q 416 1173 416 1195 q 433 1134 416 1150 q 471 1118 449 1118 q 510 1134 494 1118 q 525 1173 525 1150 q 510 1211 525 1195 q 471 1227 494 1227 "},"Æ":{"ha":1332,"x_min":69,"x_max":1261,"o":"m 1261 875 q 704 875 844 875 q 704 601 704 670 q 1191 601 1069 601 q 1191 505 1191 529 q 704 505 826 505 q 704 96 704 198 q 1261 96 1122 96 q 1261 -1 1261 23 q 606 -1 770 -1 q 606 875 606 656 q 484 875 515 875 q 165 0 245 218 q 69 0 94 0 q 422 972 334 730 q 519 972 495 972 q 519 972 519 972 q 1261 972 1076 972 q 1261 875 1261 899 "},"Ç":{"ha":970,"x_min":69,"x_max":899,"o":"m 591 -113 q 678 -153 643 -115 q 712 -241 712 -190 q 675 -332 712 -294 q 585 -369 637 -369 q 439 -369 475 -369 q 439 -293 439 -312 q 585 -293 536 -293 q 620 -278 605 -293 q 635 -241 635 -263 q 620 -205 635 -220 q 585 -190 605 -190 q 514 -190 532 -190 q 514 1 514 -62 q 349 46 426 8 q 212 141 270 83 q 107 296 145 208 q 69 486 69 385 q 107 675 69 586 q 212 829 145 764 q 366 933 277 895 q 556 971 454 971 q 700 971 663 971 q 700 875 700 899 q 556 875 591 875 q 556 873 556 873 q 403 844 475 873 q 281 760 332 812 q 197 637 228 708 q 167 486 167 567 q 197 334 167 404 q 281 212 228 263 q 403 127 332 157 q 556 98 475 98 q 707 127 636 98 q 829 212 777 157 q 899 141 875 165 q 761 45 840 83 q 591 1 681 8 q 591 -113 591 -84 "},"È":{"ha":795,"x_min":69,"x_max":724,"o":"m 724 875 q 167 875 307 875 q 167 602 167 671 q 652 602 532 602 q 652 505 652 529 q 167 505 288 505 q 167 98 167 199 q 724 98 585 98 q 724 -1 724 23 q 69 -1 233 -1 q 69 972 69 728 q 724 972 560 972 q 724 875 724 899 m 460 1057 q 381 1057 400 1057 q 266 1256 294 1206 q 343 1256 324 1256 q 460 1057 430 1107 "},"É":{"ha":795,"x_min":69,"x_max":724,"o":"m 724 875 q 167 875 307 875 q 167 602 167 671 q 651 602 530 602 q 651 505 651 529 q 167 505 288 505 q 167 98 167 199 q 724 98 585 98 q 724 -1 724 23 q 69 -1 233 -1 q 69 972 69 728 q 724 972 560 972 q 724 875 724 899 m 560 1256 q 445 1057 473 1107 q 365 1057 385 1057 q 480 1256 452 1206 q 560 1256 540 1256 "},"Ê":{"ha":795,"x_min":69,"x_max":724,"o":"m 724 875 q 167 875 307 875 q 167 602 167 671 q 652 602 532 602 q 652 505 652 529 q 167 505 288 505 q 167 98 167 199 q 724 98 585 98 q 724 -1 724 23 q 69 -1 233 -1 q 69 972 69 728 q 724 972 560 972 q 724 875 724 899 m 411 1203 q 307 1057 334 1093 q 228 1057 248 1057 q 411 1316 365 1251 q 593 1057 548 1122 q 514 1057 533 1057 q 411 1203 437 1166 "},"Ë":{"ha":795,"x_min":69,"x_max":724,"o":"m 724 875 q 167 875 307 875 q 167 602 167 671 q 652 602 532 602 q 652 505 652 529 q 167 505 288 505 q 167 98 167 199 q 724 98 585 98 q 724 -1 724 23 q 69 -1 233 -1 q 69 972 69 728 q 724 972 560 972 q 724 875 724 899 m 205 1057 q 161 1074 179 1057 q 144 1116 144 1092 q 161 1160 144 1142 q 205 1177 179 1177 q 247 1160 229 1177 q 266 1116 266 1142 q 247 1074 266 1092 q 205 1057 229 1057 m 614 1057 q 571 1074 589 1057 q 553 1116 553 1092 q 571 1160 553 1142 q 614 1177 589 1177 q 656 1160 639 1177 q 674 1116 674 1142 q 656 1074 674 1092 q 614 1057 639 1057 "},"Ì":{"ha":345,"x_min":69,"x_max":274,"o":"m 274 0 q 176 0 201 0 q 176 971 176 728 q 274 971 250 971 q 274 0 274 243 m 263 1057 q 184 1057 205 1057 q 69 1256 98 1206 q 148 1256 127 1256 q 263 1057 233 1107 "},"Í":{"ha":351,"x_min":69,"x_max":281,"o":"m 167 0 q 69 0 94 0 q 69 971 69 728 q 167 971 142 971 q 167 0 167 243 m 281 1256 q 165 1057 194 1107 q 85 1057 106 1057 q 201 1256 172 1206 q 281 1256 260 1256 "},"Î":{"ha":505,"x_min":69,"x_max":433,"o":"m 300 0 q 203 0 227 0 q 203 971 203 728 q 300 971 275 971 q 300 0 300 243 m 251 1316 q 433 1057 388 1122 q 354 1057 374 1057 q 252 1203 278 1166 q 148 1057 174 1093 q 69 1057 90 1057 q 251 1316 206 1251 "},"Ï":{"ha":671,"x_min":69,"x_max":600,"o":"m 382 0 q 285 0 309 0 q 285 971 285 728 q 382 971 358 971 q 382 0 382 243 m 129 1057 q 87 1074 104 1057 q 69 1116 69 1092 q 87 1160 69 1142 q 129 1177 104 1177 q 172 1160 155 1177 q 190 1116 190 1142 q 172 1074 190 1092 q 129 1057 155 1057 m 538 1057 q 496 1074 514 1057 q 477 1116 477 1092 q 496 1160 477 1142 q 538 1177 514 1177 q 582 1160 564 1177 q 600 1116 600 1142 q 582 1074 600 1092 q 538 1057 564 1057 "},"Ñ":{"ha":799,"x_min":69,"x_max":728,"o":"m 631 971 q 728 971 704 971 q 728 -1 728 241 q 631 -1 655 -1 q 167 803 282 602 q 167 -1 167 199 q 69 -1 94 -1 q 69 971 69 728 q 167 971 142 971 q 631 168 514 369 q 631 971 631 770 m 263 1057 q 180 1090 214 1057 q 146 1173 146 1124 q 180 1256 146 1222 q 263 1290 214 1290 q 273 1290 270 1290 q 533 1105 446 1168 q 582 1126 562 1105 q 601 1173 601 1146 q 582 1222 601 1202 q 533 1241 562 1241 q 533 1290 533 1274 q 616 1256 582 1290 q 650 1173 650 1222 q 616 1090 650 1124 q 533 1057 582 1057 q 525 1057 528 1057 q 263 1241 350 1180 q 214 1222 235 1241 q 194 1173 194 1202 q 214 1126 194 1146 q 263 1105 235 1105 q 263 1057 263 1069 "},"Ò":{"ha":1112,"x_min":69,"x_max":1042,"o":"m 556 972 q 795 909 686 972 q 968 742 903 845 q 1023 621 1002 686 q 1042 486 1042 556 q 978 245 1042 355 q 811 73 916 137 q 690 19 755 38 q 556 0 627 0 q 315 62 425 0 q 142 229 206 126 q 88 350 107 285 q 69 486 69 415 q 88 621 69 556 q 142 742 107 686 q 315 909 206 845 q 556 972 425 972 m 556 96 q 663 111 612 96 q 760 155 716 126 q 892 294 842 206 q 944 486 944 381 q 894 677 944 590 q 760 815 842 765 q 663 859 715 844 q 556 873 612 873 q 363 823 450 873 q 224 690 275 773 q 180 594 195 646 q 165 486 165 543 q 216 293 165 381 q 350 155 267 206 q 448 111 395 126 q 556 96 499 96 m 587 1057 q 510 1057 529 1057 q 395 1256 423 1206 q 472 1256 453 1256 q 587 1057 559 1107 "},"Ó":{"ha":1112,"x_min":69,"x_max":1042,"o":"m 556 972 q 795 909 686 972 q 968 742 903 845 q 1023 621 1002 686 q 1042 486 1042 556 q 978 245 1042 355 q 811 73 916 137 q 690 19 755 38 q 556 0 627 0 q 315 62 425 0 q 142 229 206 126 q 88 350 107 285 q 69 486 69 415 q 88 621 69 556 q 142 742 107 686 q 315 909 206 845 q 556 972 425 972 m 556 96 q 663 111 612 96 q 760 155 716 126 q 892 294 842 206 q 944 486 944 381 q 894 677 944 590 q 760 815 842 765 q 663 859 715 844 q 556 873 612 873 q 363 823 450 873 q 224 690 275 773 q 180 594 195 646 q 165 486 165 543 q 216 293 165 381 q 350 155 267 206 q 448 111 395 126 q 556 96 499 96 m 718 1256 q 602 1057 632 1107 q 525 1057 544 1057 q 640 1256 612 1206 q 718 1256 699 1256 "},"Ô":{"ha":1112,"x_min":69,"x_max":1042,"o":"m 556 972 q 795 909 686 972 q 968 742 905 845 q 1023 621 1004 686 q 1042 486 1042 556 q 978 245 1042 355 q 811 73 916 137 q 690 19 755 38 q 556 0 627 0 q 315 62 425 0 q 142 229 206 126 q 88 350 107 285 q 69 486 69 415 q 88 621 69 556 q 142 742 107 686 q 315 909 206 845 q 556 972 425 972 m 556 96 q 663 111 612 96 q 760 155 716 126 q 894 294 844 206 q 944 486 944 381 q 894 677 944 590 q 760 815 842 765 q 663 859 715 844 q 556 873 612 873 q 363 823 450 873 q 224 690 275 773 q 180 594 195 646 q 165 486 165 543 q 216 293 165 381 q 350 155 267 206 q 448 111 395 126 q 556 96 499 96 m 556 1203 q 452 1057 477 1093 q 372 1057 392 1057 q 556 1316 510 1251 q 738 1057 692 1122 q 658 1057 678 1057 q 556 1203 582 1166 "},"Õ":{"ha":1111,"x_min":69,"x_max":1042,"o":"m 556 972 q 795 909 686 972 q 968 742 905 845 q 1023 621 1004 686 q 1042 486 1042 556 q 978 245 1042 355 q 811 73 916 137 q 690 19 755 38 q 556 0 627 0 q 315 62 425 0 q 142 229 206 126 q 88 350 107 285 q 69 486 69 415 q 88 621 69 556 q 142 742 107 686 q 315 909 206 845 q 556 972 425 972 m 556 96 q 663 111 612 96 q 760 155 716 126 q 894 294 844 206 q 944 486 944 381 q 894 677 944 590 q 760 815 842 765 q 663 859 715 844 q 556 873 612 873 q 363 823 450 873 q 224 690 275 773 q 180 594 195 646 q 165 486 165 543 q 216 293 165 381 q 350 155 267 206 q 448 111 395 126 q 556 96 499 96 m 419 1057 q 338 1090 372 1057 q 302 1173 302 1124 q 338 1256 302 1222 q 419 1290 372 1290 q 429 1290 427 1290 q 690 1105 604 1168 q 738 1126 719 1105 q 758 1173 758 1146 q 738 1222 758 1202 q 690 1241 719 1241 q 690 1290 690 1274 q 773 1256 738 1290 q 807 1173 807 1222 q 773 1090 807 1124 q 690 1057 738 1057 q 681 1057 684 1057 q 419 1241 506 1180 q 372 1222 392 1241 q 351 1173 351 1202 q 372 1126 351 1146 q 419 1105 392 1105 q 419 1057 419 1069 "},"Ö":{"ha":1111,"x_min":69,"x_max":1042,"o":"m 556 972 q 795 909 686 972 q 968 742 903 845 q 1023 621 1002 686 q 1042 486 1042 556 q 978 245 1042 355 q 811 73 916 137 q 690 19 755 38 q 556 0 627 0 q 315 62 425 0 q 142 229 206 126 q 88 350 107 285 q 69 486 69 415 q 88 621 69 556 q 142 742 107 686 q 315 909 206 845 q 556 972 425 972 m 556 96 q 663 111 612 96 q 760 155 715 126 q 892 293 842 206 q 943 486 943 381 q 892 677 943 590 q 760 815 842 764 q 663 859 715 844 q 556 873 612 873 q 363 823 450 873 q 224 690 275 773 q 180 594 195 646 q 165 486 165 543 q 216 293 165 381 q 350 155 267 206 q 448 111 395 126 q 556 96 499 96 m 350 1057 q 308 1074 326 1057 q 290 1116 290 1092 q 308 1160 290 1142 q 350 1177 326 1177 q 393 1160 374 1177 q 411 1116 411 1142 q 393 1074 411 1092 q 350 1057 374 1057 m 760 1057 q 716 1074 735 1057 q 699 1116 699 1092 q 716 1160 699 1142 q 760 1177 735 1177 q 802 1160 785 1177 q 819 1116 819 1142 q 802 1074 819 1092 q 760 1057 785 1057 "},"Ø":{"ha":1112,"x_min":69,"x_max":1042,"o":"m 838 879 q 986 709 930 812 q 1042 484 1040 606 q 978 245 1042 354 q 811 72 916 136 q 690 18 755 37 q 556 -1 627 -1 q 452 9 502 -1 q 355 42 401 20 q 278 -92 297 -58 q 167 -92 194 -92 q 271 91 236 30 q 125 259 179 156 q 69 484 69 363 q 88 620 69 555 q 142 741 107 685 q 315 907 206 844 q 556 971 425 971 q 659 960 609 971 q 755 928 709 948 q 831 1059 812 1027 q 943 1059 916 1059 q 838 879 865 924 m 165 484 q 208 309 165 389 q 321 175 250 228 q 705 844 578 620 q 633 865 671 857 q 556 873 595 873 q 363 823 450 873 q 224 689 275 772 q 180 593 197 644 q 165 484 165 541 m 556 96 q 663 111 612 96 q 760 155 715 126 q 892 293 842 206 q 943 484 943 380 q 902 661 943 579 q 791 795 860 742 q 404 126 533 349 q 477 104 439 111 q 556 96 515 96 "},"Ù":{"ha":792,"x_min":69,"x_max":720,"o":"m 624 971 q 720 971 697 971 q 720 326 720 540 q 708 235 720 278 q 671 153 696 190 q 556 41 629 84 q 395 -1 483 -1 q 304 11 347 -1 q 224 47 260 24 q 111 164 155 91 q 69 326 69 237 q 69 971 69 810 q 165 971 141 971 q 165 326 165 540 q 232 163 165 231 q 395 96 300 96 q 556 163 490 96 q 624 326 624 231 q 624 971 624 810 m 441 1057 q 361 1057 381 1057 q 245 1256 274 1206 q 326 1256 305 1256 q 441 1057 411 1107 "},"Ú":{"ha":792,"x_min":69,"x_max":720,"o":"m 624 972 q 720 972 697 972 q 720 326 720 541 q 708 235 720 278 q 671 155 696 191 q 556 42 629 84 q 395 0 483 0 q 304 12 347 0 q 224 49 260 26 q 111 165 153 92 q 69 326 69 237 q 69 972 69 811 q 165 972 141 972 q 165 326 165 541 q 232 164 165 231 q 395 98 300 98 q 556 164 490 98 q 624 326 624 231 q 624 972 624 811 m 557 1256 q 441 1057 469 1107 q 362 1057 382 1057 q 477 1256 449 1206 q 557 1256 537 1256 "},"Û":{"ha":792,"x_min":69,"x_max":720,"o":"m 624 972 q 720 972 697 972 q 720 326 720 541 q 708 235 720 278 q 671 155 696 191 q 556 42 629 84 q 395 0 483 0 q 304 12 347 0 q 224 49 260 26 q 111 165 153 92 q 69 326 69 237 q 69 972 69 811 q 165 972 141 972 q 165 326 165 541 q 232 164 165 231 q 395 98 300 98 q 556 164 490 98 q 624 326 624 231 q 624 972 624 811 m 396 1203 q 292 1057 317 1093 q 213 1057 232 1057 q 395 1316 349 1251 q 578 1057 532 1122 q 499 1057 518 1057 q 396 1203 422 1166 "},"Ü":{"ha":792,"x_min":69,"x_max":720,"o":"m 624 972 q 720 972 697 972 q 720 326 720 541 q 708 235 720 278 q 671 155 696 191 q 556 42 629 84 q 395 0 483 0 q 304 12 347 0 q 224 49 260 26 q 111 165 153 92 q 69 326 69 237 q 69 972 69 811 q 165 972 141 972 q 165 326 165 541 q 232 164 165 231 q 395 98 300 98 q 556 164 490 98 q 624 326 624 231 q 624 972 624 811 m 190 1057 q 148 1074 165 1057 q 129 1116 129 1092 q 148 1160 129 1142 q 190 1177 165 1177 q 233 1160 216 1177 q 251 1116 251 1142 q 233 1074 251 1092 q 190 1057 216 1057 m 600 1057 q 556 1074 574 1057 q 538 1116 538 1092 q 556 1160 538 1142 q 600 1177 574 1177 q 643 1160 625 1177 q 659 1116 659 1142 q 643 1074 659 1092 q 600 1057 625 1057 "},"ß":{"ha":844,"x_min":69,"x_max":772,"o":"m 684 336 q 772 123 772 248 q 684 -91 772 -1 q 471 -179 595 -179 q 256 -91 346 -179 q 327 -20 304 -43 q 471 -81 385 -81 q 616 -20 555 -81 q 674 123 674 38 q 616 267 674 208 q 465 380 503 351 q 392 433 410 420 q 456 515 439 495 q 575 669 536 617 q 515 812 575 753 q 369 872 454 872 q 225 812 285 872 q 165 669 165 753 q 165 -3 165 165 q 69 -3 94 -3 q 69 669 69 445 q 157 882 69 793 q 369 970 245 970 q 583 882 495 970 q 671 669 671 793 q 671 646 671 651 q 526 460 563 506 q 684 336 644 368 "},"à":{"ha":742,"x_min":69,"x_max":671,"o":"m 369 601 q 671 601 595 601 q 671 0 671 151 q 369 0 469 0 q 157 88 245 0 q 69 300 69 176 q 157 513 69 425 q 369 601 245 601 m 575 96 q 575 506 575 403 q 369 506 438 506 q 225 445 285 506 q 165 300 165 385 q 225 156 165 216 q 369 96 285 96 q 575 96 524 96 m 515 712 q 438 712 457 712 q 323 913 351 863 q 400 913 381 913 q 515 712 487 762 "},"á":{"ha":742,"x_min":69,"x_max":671,"o":"m 369 601 q 671 601 595 601 q 671 0 671 151 q 369 0 469 0 q 157 88 245 0 q 69 300 69 176 q 157 513 69 425 q 369 601 245 601 m 575 96 q 575 506 575 403 q 369 506 438 506 q 225 445 285 506 q 165 300 165 385 q 225 156 165 216 q 369 96 285 96 q 575 96 524 96 m 564 913 q 449 712 477 762 q 369 712 389 712 q 486 913 457 863 q 564 913 544 913 "},"â":{"ha":742,"x_min":69,"x_max":671,"o":"m 369 601 q 671 601 595 601 q 671 0 671 151 q 369 0 469 0 q 157 88 245 0 q 69 300 69 176 q 157 513 69 425 q 369 601 245 601 m 575 96 q 575 506 575 403 q 369 506 438 506 q 225 445 285 506 q 165 300 165 385 q 225 156 165 216 q 369 96 285 96 q 575 96 524 96 m 419 860 q 315 712 342 749 q 236 712 256 712 q 419 972 373 907 q 601 712 556 777 q 522 712 543 712 q 419 860 445 823 "},"ã":{"ha":742,"x_min":69,"x_max":671,"o":"m 369 601 q 671 601 595 601 q 671 0 671 151 q 369 0 469 0 q 157 88 245 0 q 69 300 69 176 q 157 513 69 425 q 369 601 245 601 m 574 96 q 574 506 574 403 q 369 506 438 506 q 225 445 285 506 q 165 300 165 385 q 225 156 165 216 q 369 96 285 96 q 574 96 522 96 m 285 712 q 202 747 237 712 q 168 829 168 781 q 202 911 168 878 q 285 945 237 945 q 293 945 292 945 q 555 761 467 823 q 602 781 582 761 q 623 829 623 802 q 602 878 623 857 q 555 898 582 898 q 555 945 555 929 q 637 911 604 945 q 671 829 671 878 q 637 747 671 781 q 555 712 604 712 q 545 712 548 712 q 285 898 372 836 q 236 878 256 898 q 217 829 217 857 q 236 781 217 802 q 285 761 256 761 q 285 712 285 724 "},"ä":{"ha":742,"x_min":69,"x_max":671,"o":"m 369 601 q 671 601 595 601 q 671 0 671 151 q 369 0 469 0 q 157 88 245 0 q 69 300 69 176 q 157 513 69 425 q 369 601 245 601 m 574 96 q 574 506 574 403 q 369 506 438 506 q 225 445 285 506 q 165 300 165 385 q 225 156 165 216 q 369 96 285 96 q 574 96 522 96 m 349 712 q 307 731 324 712 q 289 773 289 749 q 307 817 289 799 q 349 834 324 834 q 392 817 374 834 q 410 773 410 799 q 392 731 410 749 q 349 712 374 712 m 612 712 q 568 731 586 712 q 551 773 551 749 q 568 817 551 799 q 612 834 586 834 q 654 817 636 834 q 671 773 671 799 q 654 731 671 749 q 612 712 636 712 "},"å":{"ha":742,"x_min":69,"x_max":671,"o":"m 369 601 q 671 601 595 601 q 671 0 671 151 q 369 0 469 0 q 157 88 245 0 q 69 300 69 176 q 157 513 69 425 q 369 601 245 601 m 575 96 q 575 506 575 403 q 369 506 438 506 q 225 445 285 506 q 165 300 165 385 q 225 156 165 216 q 369 96 285 96 q 575 96 524 96 m 452 712 q 365 749 401 712 q 330 834 330 784 q 365 921 330 886 q 452 958 401 958 q 538 921 502 958 q 575 834 575 886 q 538 749 575 784 q 452 712 502 712 m 452 888 q 414 872 430 888 q 397 834 397 857 q 414 796 397 812 q 452 780 430 780 q 491 796 475 780 q 507 834 507 812 q 491 872 507 857 q 452 888 475 888 "},"æ":{"ha":1248,"x_min":69,"x_max":1176,"o":"m 875 96 q 955 113 918 96 q 1020 157 993 129 q 1089 88 1066 111 q 993 23 1048 47 q 876 0 937 0 q 764 22 817 0 q 671 79 712 42 q 671 0 671 20 q 369 0 469 0 q 157 88 245 0 q 69 300 69 176 q 157 513 69 425 q 369 601 245 601 q 671 601 595 601 q 671 522 671 548 q 764 581 712 559 q 876 601 817 601 q 993 578 937 601 q 1089 514 1048 555 q 1153 418 1130 473 q 1176 300 1176 362 q 671 300 840 300 q 688 221 671 258 q 732 157 704 184 q 796 113 760 129 q 875 96 833 96 m 732 445 q 712 422 722 434 q 696 397 703 411 q 1055 397 936 397 q 1039 422 1048 411 q 1020 445 1029 434 q 955 490 993 472 q 875 506 918 506 q 796 490 833 506 q 732 445 760 472 m 574 96 q 574 506 574 403 q 369 506 438 506 q 225 445 285 506 q 165 300 165 385 q 225 156 165 216 q 369 96 285 96 q 574 96 522 96 "},"ç":{"ha":654,"x_min":69,"x_max":583,"o":"m 389 -113 q 475 -153 439 -115 q 510 -241 510 -190 q 472 -332 510 -294 q 381 -369 434 -369 q 236 -369 273 -369 q 236 -293 236 -312 q 381 -293 332 -293 q 416 -278 401 -293 q 431 -241 431 -263 q 416 -205 431 -220 q 381 -190 401 -190 q 309 -190 327 -190 q 309 5 309 -60 q 227 35 266 14 q 157 88 189 56 q 92 183 117 127 q 69 300 69 239 q 92 418 69 362 q 157 514 117 473 q 252 578 198 555 q 369 601 308 601 q 457 601 435 601 q 457 505 457 529 q 369 505 399 505 q 290 488 328 505 q 227 445 254 472 q 182 380 198 418 q 165 300 165 343 q 182 221 165 258 q 227 157 198 184 q 290 113 254 129 q 369 96 328 96 q 449 113 412 96 q 514 157 487 129 q 583 88 560 111 q 495 27 545 50 q 389 0 445 4 q 389 -113 389 -84 "},"è":{"ha":742,"x_min":69,"x_max":671,"o":"m 369 96 q 449 113 412 96 q 514 157 487 129 q 583 88 560 111 q 487 23 543 47 q 369 0 431 0 q 252 23 308 0 q 157 88 198 47 q 92 183 117 127 q 69 300 69 239 q 92 418 69 362 q 157 514 117 473 q 252 578 198 555 q 369 601 308 601 q 487 578 431 601 q 583 514 543 555 q 647 418 624 473 q 671 300 671 362 q 167 300 335 300 q 183 221 167 258 q 227 157 198 184 q 290 113 254 129 q 369 96 328 96 m 227 445 q 206 422 216 434 q 190 397 198 411 q 551 397 430 397 q 533 422 543 411 q 514 445 525 434 q 449 490 487 472 q 369 506 412 506 q 290 490 328 506 q 227 445 254 472 m 450 712 q 370 712 391 712 q 255 913 285 863 q 335 913 315 913 q 450 712 422 762 "},"é":{"ha":743,"x_min":69,"x_max":673,"o":"m 370 96 q 450 113 412 96 q 514 157 487 129 q 583 88 560 111 q 487 23 543 47 q 370 0 433 0 q 252 23 308 0 q 157 88 198 47 q 92 183 117 127 q 69 300 69 239 q 92 418 69 362 q 157 514 117 473 q 252 578 198 555 q 370 601 308 601 q 487 578 433 601 q 583 514 543 555 q 648 418 624 473 q 673 300 673 362 q 167 300 335 300 q 183 221 167 258 q 227 157 198 184 q 290 113 254 129 q 370 96 328 96 m 227 445 q 206 422 216 434 q 190 397 198 411 q 551 397 430 397 q 533 422 543 411 q 514 445 525 434 q 450 490 487 472 q 370 506 412 506 q 290 490 328 506 q 227 445 254 472 m 467 913 q 351 712 380 762 q 274 712 293 712 q 389 913 359 863 q 467 913 448 913 "},"ê":{"ha":742,"x_min":69,"x_max":671,"o":"m 369 96 q 449 113 412 96 q 514 157 487 129 q 583 88 560 111 q 487 23 543 47 q 369 0 431 0 q 252 23 308 0 q 157 88 198 47 q 92 183 117 127 q 69 300 69 239 q 92 418 69 362 q 157 514 117 473 q 252 578 198 555 q 369 601 308 601 q 487 578 431 601 q 583 514 543 555 q 647 418 624 473 q 671 300 671 362 q 167 300 335 300 q 183 221 167 258 q 227 157 198 184 q 290 113 254 129 q 369 96 328 96 m 227 445 q 206 422 216 434 q 190 397 198 411 q 551 397 430 397 q 533 422 543 411 q 514 445 525 434 q 449 490 487 472 q 369 506 412 506 q 290 490 328 506 q 227 445 254 472 m 370 860 q 267 712 293 749 q 187 712 208 712 q 370 972 326 907 q 553 712 507 777 q 473 712 494 712 q 370 860 396 823 "},"ë":{"ha":743,"x_min":69,"x_max":673,"o":"m 369 96 q 449 113 412 96 q 514 157 487 129 q 583 88 560 111 q 487 23 543 47 q 370 0 433 0 q 252 23 308 0 q 157 88 198 47 q 92 183 117 127 q 69 300 69 239 q 92 418 69 362 q 157 514 117 473 q 252 578 198 555 q 370 601 308 601 q 487 578 433 601 q 583 514 543 555 q 648 418 624 473 q 673 300 673 362 q 167 300 335 300 q 183 221 167 258 q 227 157 198 184 q 290 113 254 129 q 369 96 328 96 m 227 445 q 206 422 216 434 q 190 397 198 411 q 551 397 430 397 q 533 422 543 411 q 514 445 525 434 q 449 490 487 472 q 369 506 412 506 q 290 490 328 506 q 227 445 254 472 m 239 712 q 197 731 214 712 q 179 773 179 749 q 197 817 179 799 q 239 834 214 834 q 282 817 264 834 q 300 773 300 799 q 282 731 300 749 q 239 712 264 712 m 502 712 q 458 731 475 712 q 441 773 441 749 q 458 817 441 799 q 502 834 475 834 q 544 817 526 834 q 562 773 562 799 q 544 731 562 749 q 502 712 526 712 "},"ì":{"ha":358,"x_min":69,"x_max":288,"o":"m 288 0 q 190 0 214 0 q 190 601 190 452 q 288 601 263 601 q 288 0 288 151 m 148 913 q 263 712 233 762 q 184 712 205 712 q 69 913 98 863 q 148 913 127 913 "},"í":{"ha":351,"x_min":69,"x_max":281,"o":"m 167 0 q 69 0 94 0 q 69 601 69 452 q 167 601 142 601 q 167 0 167 151 m 281 913 q 165 712 194 762 q 85 712 106 712 q 201 913 172 863 q 281 913 260 913 "},"î":{"ha":505,"x_min":69,"x_max":433,"o":"m 300 0 q 203 0 227 0 q 203 601 203 452 q 300 601 275 601 q 300 0 300 151 m 251 972 q 433 712 388 777 q 354 712 374 712 q 252 860 278 823 q 148 712 174 749 q 69 712 90 712 q 251 972 206 907 "},"ï":{"ha":522,"x_min":69,"x_max":452,"o":"m 308 0 q 212 0 236 0 q 212 601 212 452 q 308 601 283 601 q 308 0 308 151 m 129 712 q 87 731 104 712 q 69 773 69 749 q 87 817 69 799 q 129 834 104 834 q 172 817 155 834 q 190 773 190 799 q 172 731 190 749 q 129 712 155 712 m 392 712 q 349 731 366 712 q 331 773 331 749 q 349 817 331 799 q 392 834 366 834 q 434 817 416 834 q 452 773 452 799 q 434 731 452 749 q 392 712 416 712 "},"ñ":{"ha":643,"x_min":69,"x_max":572,"o":"m 321 601 q 491 532 420 601 q 562 361 562 461 q 562 0 562 91 q 464 0 488 0 q 464 361 464 240 q 422 463 464 420 q 321 505 380 505 q 218 463 260 505 q 176 361 176 420 q 176 0 176 91 q 79 0 103 0 q 79 361 79 240 q 151 532 79 461 q 321 601 221 601 m 186 712 q 103 747 137 712 q 69 829 69 781 q 103 911 69 878 q 186 945 137 945 q 194 945 193 945 q 456 761 369 823 q 503 781 484 761 q 524 829 524 802 q 503 878 524 857 q 456 898 484 898 q 456 945 456 929 q 538 911 503 945 q 572 829 572 878 q 538 747 572 781 q 456 712 503 712 q 448 712 449 712 q 186 898 273 836 q 138 878 157 898 q 118 829 118 857 q 138 781 118 802 q 186 761 157 761 q 186 712 186 724 "},"ò":{"ha":742,"x_min":69,"x_max":671,"o":"m 369 601 q 583 513 495 601 q 671 300 671 425 q 583 88 671 176 q 369 0 495 0 q 157 88 245 0 q 69 300 69 176 q 157 513 69 425 q 369 601 245 601 m 369 96 q 515 156 454 96 q 575 300 575 216 q 515 445 575 385 q 369 506 454 506 q 225 445 285 506 q 165 300 165 385 q 225 156 165 216 q 369 96 285 96 m 415 712 q 338 712 357 712 q 222 913 251 863 q 300 913 281 913 q 415 712 387 762 "},"ó":{"ha":742,"x_min":69,"x_max":671,"o":"m 369 601 q 583 513 495 601 q 671 300 671 425 q 583 88 671 176 q 369 0 495 0 q 157 88 245 0 q 69 300 69 176 q 157 513 69 425 q 369 601 245 601 m 369 96 q 515 156 454 96 q 575 300 575 216 q 515 445 575 385 q 369 506 454 506 q 225 445 285 506 q 165 300 165 385 q 225 156 165 216 q 369 96 285 96 m 536 913 q 420 712 450 762 q 342 712 361 712 q 457 913 429 863 q 536 913 517 913 "},"ô":{"ha":742,"x_min":69,"x_max":671,"o":"m 369 601 q 583 513 495 601 q 671 300 671 425 q 583 88 671 176 q 369 0 495 0 q 157 88 245 0 q 69 300 69 176 q 157 513 69 425 q 369 601 245 601 m 369 96 q 515 156 454 96 q 575 300 575 216 q 515 445 575 385 q 369 506 454 506 q 225 445 285 506 q 165 300 165 385 q 225 156 165 216 q 369 96 285 96 m 370 860 q 267 712 293 749 q 187 712 208 712 q 370 972 326 907 q 553 712 507 777 q 473 712 494 712 q 370 860 396 823 "},"õ":{"ha":742,"x_min":69,"x_max":671,"o":"m 369 601 q 583 513 495 601 q 671 300 671 425 q 583 88 671 176 q 369 0 495 0 q 157 88 245 0 q 69 300 69 176 q 157 513 69 425 q 369 601 245 601 m 369 96 q 515 156 454 96 q 575 300 575 216 q 515 445 575 385 q 369 506 454 506 q 225 445 285 506 q 165 300 165 385 q 225 156 165 216 q 369 96 285 96 m 235 712 q 152 747 187 712 q 118 829 118 781 q 152 911 118 878 q 235 945 187 945 q 244 945 241 945 q 506 761 419 823 q 553 781 533 761 q 574 829 574 802 q 553 878 574 857 q 506 898 533 898 q 506 945 506 929 q 587 911 553 945 q 623 829 623 878 q 587 747 623 781 q 506 712 553 712 q 496 712 498 712 q 235 898 321 836 q 187 878 206 898 q 167 829 167 857 q 187 781 167 802 q 235 761 206 761 q 235 712 235 724 "},"ö":{"ha":742,"x_min":69,"x_max":671,"o":"m 369 601 q 583 513 495 601 q 671 300 671 425 q 583 88 671 176 q 369 0 495 0 q 157 88 245 0 q 69 300 69 176 q 157 513 69 425 q 369 601 245 601 m 369 96 q 515 156 454 96 q 575 300 575 216 q 515 445 575 385 q 369 506 454 506 q 225 445 285 506 q 165 300 165 385 q 225 156 165 216 q 369 96 285 96 m 239 712 q 197 731 214 712 q 179 773 179 749 q 197 817 179 799 q 239 834 214 834 q 282 817 264 834 q 300 773 300 799 q 282 731 300 749 q 239 712 264 712 m 502 712 q 458 731 475 712 q 441 773 441 749 q 458 817 441 799 q 502 834 475 834 q 544 817 526 834 q 562 773 562 799 q 544 731 562 749 q 502 712 526 712 "},"÷":{"ha":868,"x_min":69,"x_max":798,"o":"m 798 389 q 69 389 251 389 q 69 486 69 461 q 798 486 616 486 q 798 389 798 414 m 433 597 q 391 616 408 597 q 372 658 372 633 q 391 701 372 684 q 433 719 408 719 q 476 701 458 719 q 495 658 495 684 q 476 616 495 633 q 433 597 458 597 m 433 156 q 391 172 408 156 q 372 216 372 190 q 391 258 372 240 q 433 277 408 277 q 476 258 458 277 q 495 216 495 240 q 476 172 495 190 q 433 156 458 156 "},"ø":{"ha":742,"x_min":69,"x_max":671,"o":"m 560 532 q 640 430 610 490 q 671 298 671 369 q 583 85 671 174 q 369 -3 495 -3 q 315 3 342 -3 q 263 16 288 7 q 199 -92 216 -65 q 88 -92 115 -92 q 178 65 148 14 q 99 167 127 107 q 69 298 69 228 q 157 511 69 423 q 370 600 245 600 q 425 595 397 600 q 475 581 452 590 q 540 693 524 665 q 652 693 625 693 q 560 532 583 572 m 165 298 q 183 217 165 255 q 228 152 199 179 q 426 495 361 380 q 399 500 412 499 q 370 503 384 503 q 225 444 285 503 q 165 298 165 382 m 370 95 q 515 155 456 95 q 575 298 575 214 q 557 380 575 342 q 510 446 540 418 q 312 103 378 217 q 340 96 326 99 q 370 95 355 95 "},"ù":{"ha":623,"x_min":69,"x_max":552,"o":"m 454 601 q 552 601 528 601 q 552 240 552 361 q 480 71 552 140 q 309 0 410 0 q 140 71 210 0 q 69 240 69 140 q 69 601 69 511 q 165 601 141 601 q 165 240 165 361 q 208 138 165 180 q 309 96 251 96 q 412 138 370 96 q 454 240 454 180 q 454 601 454 511 m 350 712 q 273 712 292 712 q 157 913 186 863 q 235 913 216 913 q 350 712 321 762 "},"ú":{"ha":623,"x_min":69,"x_max":552,"o":"m 454 601 q 552 601 528 601 q 552 240 552 361 q 480 71 552 140 q 309 0 410 0 q 140 71 210 0 q 69 240 69 140 q 69 601 69 511 q 165 601 141 601 q 165 240 165 361 q 208 138 165 180 q 309 96 251 96 q 412 138 370 96 q 454 240 454 180 q 454 601 454 511 m 476 913 q 361 712 389 762 q 282 712 301 712 q 397 913 369 863 q 476 913 457 913 "},"û":{"ha":623,"x_min":69,"x_max":552,"o":"m 454 601 q 552 601 528 601 q 552 240 552 361 q 480 71 552 140 q 309 0 410 0 q 140 71 210 0 q 69 240 69 140 q 69 601 69 511 q 165 601 141 601 q 165 240 165 361 q 208 138 165 180 q 309 96 251 96 q 412 138 370 96 q 454 240 454 180 q 454 601 454 511 m 311 860 q 208 712 233 749 q 127 712 148 712 q 309 972 264 907 q 494 712 448 777 q 414 712 434 712 q 311 860 336 823 "},"ü":{"ha":623,"x_min":69,"x_max":552,"o":"m 454 601 q 552 601 528 601 q 552 240 552 361 q 480 71 552 140 q 309 0 410 0 q 140 71 210 0 q 69 240 69 140 q 69 601 69 511 q 165 601 141 601 q 165 240 165 361 q 208 138 165 180 q 309 96 251 96 q 412 138 370 96 q 454 240 454 180 q 454 601 454 511 m 179 712 q 136 731 155 712 q 118 773 118 749 q 136 817 118 799 q 179 834 155 834 q 222 817 205 834 q 240 773 240 799 q 222 731 240 749 q 179 712 205 712 m 441 712 q 397 731 415 712 q 381 773 381 749 q 397 817 381 799 q 441 834 415 834 q 484 817 467 834 q 502 773 502 799 q 484 731 502 749 q 441 712 467 712 "},"Œ":{"ha":1671,"x_min":69,"x_max":1600,"o":"m 1600 875 q 1043 875 1183 875 q 1043 601 1043 670 q 1529 601 1408 601 q 1529 505 1529 529 q 1043 505 1165 505 q 1043 96 1043 198 q 1600 96 1461 96 q 1600 -1 1600 23 q 945 -1 1109 -1 q 945 195 945 130 q 777 53 879 106 q 556 0 675 0 q 315 62 425 0 q 142 229 206 126 q 88 350 107 285 q 69 486 69 415 q 88 621 69 556 q 142 742 107 686 q 315 909 206 845 q 555 972 423 972 q 777 918 675 972 q 945 774 879 864 q 945 972 945 922 q 1600 972 1436 972 q 1600 875 1600 899 m 556 96 q 663 111 612 96 q 760 155 716 126 q 892 294 842 206 q 944 486 944 381 q 894 677 944 590 q 760 815 842 765 q 663 859 715 844 q 556 873 612 873 q 363 823 450 873 q 224 690 275 773 q 180 594 195 646 q 165 486 165 543 q 216 293 165 381 q 350 155 267 206 q 448 111 395 126 q 556 96 499 96 "},"œ":{"ha":1249,"x_min":69,"x_max":1177,"o":"m 876 96 q 956 113 920 96 q 1021 157 993 129 q 1089 88 1066 111 q 994 23 1048 47 q 876 0 939 0 q 760 23 814 0 q 663 88 704 47 q 642 111 652 99 q 624 137 632 123 q 517 38 583 75 q 370 0 450 0 q 157 88 245 0 q 69 300 69 176 q 157 513 69 425 q 370 602 245 602 q 517 564 450 602 q 624 464 583 526 q 642 490 632 477 q 663 514 652 502 q 760 578 704 555 q 876 601 814 601 q 994 578 939 601 q 1090 514 1048 555 q 1154 418 1131 473 q 1177 300 1177 362 q 673 300 841 300 q 689 221 673 258 q 732 157 705 184 q 798 113 760 129 q 876 96 834 96 m 732 445 q 713 422 722 434 q 697 397 704 411 q 1055 397 936 397 q 1040 422 1048 411 q 1021 445 1031 434 q 956 490 993 472 q 876 506 920 506 q 798 490 834 506 q 732 445 760 472 m 370 96 q 515 156 456 96 q 575 300 575 216 q 515 445 575 385 q 370 506 456 506 q 227 445 285 506 q 167 300 167 385 q 227 156 167 216 q 370 96 285 96 "},"ˆ":{"ha":661,"x_min":69,"x_max":590,"o":"m 330 972 q 590 601 525 694 q 477 601 506 601 q 331 812 368 760 q 180 601 218 654 q 69 601 98 601 q 330 972 264 879 "},"‰":{"ha":1354,"x_min":69,"x_max":1283,"o":"m 69 -16 q 750 956 581 712 q 868 956 838 956 q 187 -16 358 227 q 69 -16 99 -16 m 244 605 q 121 656 171 605 q 69 780 69 708 q 121 903 69 852 q 244 956 171 956 q 368 903 316 956 q 419 780 419 852 q 368 656 419 708 q 244 605 316 605 m 244 859 q 189 836 212 859 q 165 780 165 812 q 189 726 165 749 q 244 703 212 703 q 298 726 275 703 q 323 780 323 749 q 298 836 323 812 q 244 859 275 859 m 693 331 q 817 279 766 331 q 868 156 868 228 q 817 31 868 83 q 693 -19 766 -19 q 570 31 621 -19 q 518 156 518 83 q 570 279 518 228 q 693 331 621 331 m 693 77 q 749 100 726 77 q 770 156 770 123 q 749 210 770 187 q 693 233 726 233 q 637 210 661 233 q 616 156 616 187 q 637 100 616 123 q 693 77 661 77 m 1108 331 q 1233 279 1181 331 q 1283 156 1283 228 q 1233 31 1283 83 q 1108 -19 1181 -19 q 985 31 1036 -19 q 933 156 933 83 q 985 279 933 228 q 1108 331 1036 331 m 1108 77 q 1164 100 1141 77 q 1185 156 1185 123 q 1164 210 1185 187 q 1108 233 1141 233 q 1054 210 1076 233 q 1031 156 1031 187 q 1054 100 1031 123 q 1108 77 1076 77 "},"€":{"ha":1086,"x_min":69,"x_max":1016,"o":"m 673 80 q 823 111 753 80 q 947 194 894 141 q 1016 125 993 148 q 861 22 949 60 q 673 -16 773 -16 q 483 22 571 -16 q 328 125 395 60 q 250 229 282 172 q 199 353 217 288 q 69 353 102 353 q 69 420 69 404 q 189 420 149 420 q 186 445 187 433 q 186 469 186 457 q 186 494 186 481 q 189 518 187 506 q 69 518 99 518 q 69 586 69 570 q 199 586 156 586 q 250 709 217 652 q 328 812 282 766 q 483 917 395 879 q 673 956 571 956 q 861 917 773 956 q 1016 812 949 879 q 947 745 970 768 q 823 827 894 796 q 673 859 753 859 q 521 827 591 859 q 397 745 450 796 q 339 671 363 711 q 301 586 315 631 q 694 586 597 586 q 694 518 694 534 q 286 518 422 518 q 285 494 285 506 q 283 469 283 481 q 285 445 283 457 q 286 420 285 433 q 694 420 593 420 q 694 353 694 370 q 301 353 433 353 q 339 267 315 307 q 397 194 363 227 q 521 111 450 141 q 673 80 591 80 "},"™":{"ha":779,"x_min":69,"x_max":708,"o":"m 69 972 q 308 972 248 972 q 308 935 308 944 q 208 935 232 935 q 208 601 208 685 q 171 601 180 601 q 171 935 171 852 q 69 935 95 935 q 69 972 69 963 m 665 972 q 708 972 697 972 q 708 601 708 694 q 673 601 681 601 q 673 929 673 848 q 553 795 583 829 q 510 795 521 795 q 392 929 422 895 q 392 601 392 684 q 354 601 363 601 q 354 972 354 879 q 397 972 387 972 q 532 819 498 857 q 665 972 632 935 "}}}
